<svg width="711" height="241" viewBox="0 0 711 241" fill="none" xmlns="http://www.w3.org/2000/svg">
<path d="M141.2 151.07C141.68 147.96 142.14 145.02 142.96 142.17C143.09 142.05 143.22 141.91 143.36 141.77C143.5 141.64 143.64 141.49 143.79 141.34C143.93 141.21 144.07 141.06 144.21 140.92C144.35 140.79 144.49 140.64 144.64 140.49C144.78 140.36 144.92 140.21 145.07 140.06C145.21 139.93 145.35 139.78 145.5 139.63C146.38 138.82 147.27 137.69 147.62 136.03L147.68 135.77C148.86 130.18 150.08 124.4 150.56 118.53C151.54 106.5 151.22 94.36 150.92 82.63C150.66 72.66 150.39 62.36 150.94 52.3C151.13 48.73 148.99 46.83 146.92 46.26C141.36 44.71 137.04 43.33 132.65 41.25C131.73 40.82 130.82 40.4 129.91 39.98C125.77 38.07 121.85 36.26 118.49 33.74C117.15 32.74 115.07 31.45 112.54 31.82C110.83 32.07 109.58 32.97 108.58 34.03C108.43 34.17 108.29 34.31 108.15 34.46C108 34.6 107.86 34.74 107.72 34.89C107.57 35.03 107.43 35.17 107.3 35.31C107.15 35.45 107.01 35.59 106.87 35.74C106.72 35.88 106.58 36.02 106.45 36.16C106.3 36.3 106.16 36.44 106.02 36.59C105.87 36.73 105.73 36.87 105.6 37.01C105.45 37.15 105.31 37.29 105.17 37.44C105.02 37.58 104.88 37.72 104.74 37.87C104.59 38.01 104.45 38.15 104.32 38.29C104.17 38.43 104.03 38.57 103.89 38.72C103.74 38.86 103.6 39 103.47 39.14C103.32 39.28 103.18 39.42 103.04 39.57C102.89 39.71 102.75 39.85 102.62 39.99C102.01 40.56 101.48 41.2 101.02 41.83C97.95 46 95.06 50.35 92.2 55.13C87.64 62.73 84.14 69.8 80.04 78.24C77.08 84.34 74.72 89.24 72.49 94.46C70.47 92.16 68.33 89.9 66.22 87.68C62.06 83.31 57.76 78.79 54.91 74.36C54.91 74.31 54.91 74.26 54.91 74.21C54.69 71 53.2 69.01 50.48 68.28C49.05 67.9 47.63 67.5 46.21 67.11C42.33 66.03 38.31 64.92 34.24 64.08C31.19 63.45 28.3 62.63 25.24 61.77C23.01 61.14 20.71 60.49 18.24 59.88C18.19 59.85 18.13 59.83 18.08 59.8C17.27 59.39 15.57 58.55 13.51 59.26C12.89 59.48 12.1 59.9 11.38 60.7C11.24 60.83 11.09 60.97 10.95 61.13C10.81 61.26 10.66 61.4 10.52 61.56C10.38 61.69 10.23 61.83 10.09 61.99C9.94999 62.12 9.8 62.26 9.66 62.42C9.52 62.55 9.36999 62.69 9.22999 62.85C9.08999 62.98 8.94 63.12 8.8 63.28C8.66 63.41 8.50999 63.55 8.36999 63.71C8.22999 63.84 8.08 63.98 7.94 64.14C7.8 64.27 7.64999 64.41 7.50999 64.57C7.36999 64.7 7.22 64.84 7.08 65C6.94 65.13 6.78999 65.27 6.64999 65.43C6.50999 65.56 6.35999 65.7 6.21999 65.86C6.07999 65.99 5.92999 66.13 5.78999 66.29C5.64999 66.42 5.49999 66.56 5.35999 66.72C4.82999 67.19 4.31999 67.83 3.89999 68.72L3.63 69.28C2.65 71.3 1.16999 74.35 2.36999 77.83C3.08999 79.91 3.69 82.02 4.33 84.26C4.94 86.4 5.56999 88.6 6.30999 90.77C10.68 103.61 16.72 115.85 22.56 127.68C23.7 130 24.85 132.32 25.98 134.64L26.07 134.82C35.27 153.7 43.96 171.53 47.27 191.69C47.75 194.6 49.47 196.76 52.41 198.11C56.95 200.2 62.95 199.37 68.08 195.95C69.39 195.07 70.55 194.09 71.56 193.04C71.7 192.9 71.85 192.76 71.99 192.61C72.13 192.47 72.28 192.33 72.41 192.19C72.55 192.05 72.7 191.91 72.84 191.76C72.98 191.62 73.13 191.48 73.26 191.34C73.4 191.2 73.55 191.06 73.69 190.91C73.83 190.77 73.98 190.63 74.12 190.48C74.26 190.34 74.41 190.2 74.55 190.05C74.69 189.91 74.84 189.77 74.98 189.62C75.12 189.48 75.27 189.34 75.4 189.2C75.54 189.06 75.69 188.92 75.83 188.77C75.97 188.63 76.12 188.49 76.25 188.35C76.39 188.21 76.54 188.07 76.68 187.92C76.82 187.78 76.97 187.64 77.11 187.49C77.25 187.35 77.4 187.21 77.54 187.06C80.74 183.91 82.5 180.01 82.34 176.12C82.17 171.7 81.73 167 81.05 162.14C81.01 161.86 80.93 161.53 80.78 161.05C81.55 161.05 82.36 161.02 83.21 160.92C84.11 160.82 85.06 160.54 86.26 160.2C87.41 159.87 88.83 159.46 90.46 159.14C91.36 158.96 92.14 158.48 92.72 157.81C92.87 157.68 93.01 157.54 93.15 157.38C93.3 157.25 93.44 157.11 93.57 156.96C93.72 156.83 93.86 156.69 94 156.53C94.15 156.4 94.29 156.26 94.42 156.11C94.57 155.98 94.71 155.84 94.85 155.68C95 155.55 95.14 155.41 95.28 155.25C95.43 155.12 95.57 154.98 95.71 154.82C95.86 154.69 96 154.55 96.14 154.39C96.29 154.26 96.43 154.12 96.56 153.97C96.71 153.84 96.85 153.7 96.99 153.54C97.03 153.5 97.08 153.47 97.12 153.43C96.04 158.75 94.97 163.66 94.03 167.73C93.95 168.06 93.92 168.41 93.93 168.75C94.01 171.35 93.23 174.11 92.41 177.03C91.81 179.15 91.2 181.34 90.86 183.64C89.43 193.42 88.76 203.35 88.12 212.96C87.79 217.89 87.45 222.99 87.01 227.97C86.55 233.17 89 237.05 93.92 238.91C95.52 239.52 97.01 239.75 98.39 239.75C101.4 239.75 103.89 238.63 105.88 237.73C106.46 237.47 107.04 237.2 107.64 236.97C108.56 236.61 109.5 236.28 110.45 235.95C113.93 234.73 118.14 233.23 121.25 230.08C121.4 229.94 121.53 229.8 121.68 229.65C121.83 229.51 121.96 229.37 122.1 229.23C122.17 229.17 122.24 229.11 122.3 229.05C122.32 229.07 122.34 229.08 122.36 229.1C123.42 229.92 124.83 230.15 126.1 229.71C126.77 229.48 127.35 229.08 127.8 228.56C127.95 228.43 128.09 228.29 128.23 228.13C128.38 228 128.52 227.86 128.65 227.71C128.8 227.58 128.94 227.44 129.08 227.28C129.23 227.15 129.37 227.01 129.5 226.86C129.65 226.73 129.79 226.59 129.93 226.43C130.08 226.3 130.22 226.16 130.36 226C130.51 225.87 130.65 225.73 130.79 225.57C130.94 225.44 131.08 225.3 131.22 225.14C131.37 225.01 131.51 224.87 131.64 224.72C131.79 224.59 131.93 224.45 132.07 224.29C132.22 224.16 132.36 224.02 132.49 223.87C132.64 223.74 132.78 223.6 132.92 223.44C133.07 223.31 133.21 223.17 133.35 223.01C133.5 222.88 133.64 222.74 133.78 222.58C134.4 222.05 134.86 221.34 135.07 220.52C135.86 217.46 135.76 214.64 135.67 212.16C135.61 210.63 135.56 209.19 135.73 207.91C135.76 207.65 135.89 207.2 136.01 206.77C136.54 204.84 137.73 200.54 133.99 197.26C133.51 193.21 134.11 189.01 134.75 184.59C134.91 183.49 135.07 182.39 135.21 181.29L135.25 180.98C135.64 177.97 136.01 175.13 136.59 172.29C136.86 170.96 137.22 169.62 137.6 168.21C137.97 166.83 138.36 165.41 138.67 163.94C138.75 163.55 138.78 163.15 138.74 162.75C140.07 158.84 140.68 154.9 141.26 151.08L141.2 151.07Z" fill="#1D1D1B" stroke="white" stroke-width="3" stroke-miterlimit="10"/>
<path d="M710.31 160.73C709.15 156.66 705.56 154.52 701.36 155.4L700.75 155.53C698.42 156.02 696.01 156.53 693.61 157.23C689.23 158.52 684.86 159.84 680.48 161.15C680.5 161.13 680.51 161.1 680.53 161.07C680.68 160.94 680.83 160.8 680.96 160.64C681.11 160.51 681.26 160.37 681.38 160.22C681.53 160.09 681.68 159.95 681.81 159.79C681.96 159.66 682.11 159.52 682.24 159.36C682.39 159.23 682.54 159.09 682.67 158.93C682.82 158.8 682.97 158.66 683.1 158.5C683.25 158.37 683.4 158.23 683.52 158.08C683.67 157.95 683.82 157.81 683.95 157.65C684.1 157.52 684.25 157.38 684.37 157.23C684.52 157.1 684.67 156.96 684.8 156.8C684.95 156.67 685.1 156.53 685.23 156.37C685.38 156.24 685.53 156.1 685.66 155.94C686.01 155.62 686.33 155.26 686.55 154.83C687.13 153.71 687.14 152.37 686.59 151.23C682.28 142.45 679.5 141.27 670.93 144.58C668.68 145.45 666.35 146.14 663.89 146.87C662.46 147.29 661.03 147.72 659.61 148.18C659.61 148.12 659.59 148.05 659.58 147.98C659.45 147.05 659.64 145.97 659.86 144.71C660.14 143.09 660.47 141.25 660.2 139.16C659.4 132.83 659.41 126.53 659.44 119.86C659.44 118.12 659.45 116.39 659.44 114.66C660.24 114.27 660.87 113.76 661.38 113.19C661.53 113.05 661.67 112.91 661.81 112.76C661.96 112.62 662.1 112.48 662.23 112.34C662.38 112.2 662.52 112.06 662.66 111.91C662.81 111.77 662.95 111.63 663.08 111.49C663.23 111.35 663.37 111.21 663.51 111.06C663.66 110.92 663.8 110.78 663.94 110.63C664.09 110.49 664.23 110.35 664.37 110.2C664.52 110.06 664.66 109.92 664.8 109.77C664.95 109.63 665.09 109.49 665.22 109.35C665.37 109.21 665.51 109.07 665.65 108.92C665.8 108.78 665.94 108.64 666.07 108.5C666.22 108.36 666.36 108.22 666.5 108.07C666.65 107.93 666.79 107.79 666.93 107.64C667.08 107.5 667.22 107.36 667.36 107.21C669.16 105.56 669.64 103.23 669.89 101.99C670.3 99.94 670.24 96.18 665.21 94.03L663.91 93.47C662.19 92.73 660.42 91.96 658.59 91.28C658.59 91.28 658.59 91.27 658.59 91.26C658.27 84.8 657.68 77.19 655.74 69.78C655.5 68.88 655.32 67.9 655.13 66.86C654.25 62.15 652.92 55.04 643.92 52.8C639.57 51.72 635.19 52.31 631.92 54.42C631.09 54.95 630.35 55.58 629.69 56.27C629.54 56.41 629.4 56.55 629.26 56.7C629.11 56.84 628.97 56.98 628.83 57.13C628.68 57.27 628.54 57.41 628.41 57.55C628.26 57.69 628.12 57.83 627.98 57.98C627.83 58.12 627.69 58.26 627.56 58.4C627.41 58.54 627.27 58.68 627.13 58.83C626.98 58.97 626.84 59.11 626.71 59.25C626.56 59.39 626.42 59.53 626.28 59.68C626.13 59.82 625.99 59.96 625.85 60.11C625.7 60.25 625.56 60.39 625.43 60.53C625.28 60.67 625.14 60.81 625 60.96C624.85 61.1 624.71 61.24 624.58 61.38C624.43 61.52 624.29 61.66 624.15 61.81C624 61.95 623.86 62.09 623.73 62.23C621.81 64.05 620.53 66.45 620 69.29C619.59 71.5 619.1 73.68 618.57 75.98C617.64 80.07 616.69 84.27 616.28 88.64C612.86 90.25 609.43 91.87 606.01 93.47C600.48 96.06 594.95 98.65 589.43 101.27C589.08 96.31 588.16 91.49 587.27 86.81C586.45 82.5 585.67 78.43 585.31 74.28C585.01 70.82 583.37 68.58 580.16 67.22C575.52 65.25 570.73 63.87 566.1 62.52C563.35 61.72 560.5 60.9 557.78 59.97C554.68 58.92 552.09 59.12 550.08 60.56C549.72 60.82 549.4 61.12 549.11 61.44C548.96 61.57 548.82 61.72 548.68 61.87C548.53 62 548.39 62.15 548.25 62.3C548.1 62.43 547.96 62.58 547.82 62.72C547.67 62.85 547.53 63 547.39 63.15C547.24 63.28 547.1 63.43 546.97 63.57C546.82 63.7 546.68 63.85 546.54 64C546.39 64.13 546.25 64.28 546.12 64.42C545.97 64.55 545.83 64.7 545.69 64.85C545.54 64.98 545.4 65.13 545.26 65.28C545.11 65.41 544.97 65.56 544.83 65.7C544.68 65.83 544.54 65.98 544.4 66.13C544.25 66.26 544.11 66.41 543.98 66.55C543.83 66.68 543.69 66.83 543.55 66.98C543.4 67.11 543.26 67.26 543.13 67.4C541.44 68.92 540.59 71.27 540.61 74.42C540.61 75.55 540.65 76.68 540.69 77.81C540.77 80.31 540.84 82.67 540.59 84.92C539.27 96.85 540.18 108.73 541.07 120.22L541.29 123.1C541.42 124.79 541.43 126.17 541.29 127.33C538.26 128.75 535.44 130.51 532.71 132.23C531.32 133.1 530.01 133.93 528.68 134.71C527.77 135.24 527.08 135.81 526.55 136.39C526.4 136.53 526.26 136.67 526.12 136.82C525.97 136.96 525.83 137.1 525.69 137.25C525.54 137.39 525.4 137.53 525.27 137.67C525.12 137.81 524.97 137.95 524.84 138.1C524.69 138.24 524.55 138.38 524.42 138.52C524.27 138.66 524.12 138.8 523.99 138.95C523.84 139.09 523.7 139.23 523.57 139.37C523.42 139.51 523.28 139.65 523.14 139.8C522.99 139.94 522.85 140.08 522.71 140.23C522.56 140.37 522.42 140.51 522.29 140.65C522.14 140.79 521.99 140.93 521.86 141.08C521.71 141.22 521.57 141.36 521.44 141.5C521.29 141.64 521.14 141.78 521.01 141.93C520.86 142.07 520.72 142.21 520.59 142.35C519.2 143.64 518.72 145.01 518.61 146.13C517.06 145.12 515.42 144.15 513 142.8C512.63 142.59 512.28 142.43 511.94 142.27C511.86 142.23 511.78 142.2 511.7 142.16C509.56 139.16 507.02 137.97 504.16 138.6C502.63 138.94 501.53 139.68 500.73 140.56C500.58 140.7 500.44 140.84 500.3 140.99C500.15 141.13 500.01 141.27 499.87 141.42C499.72 141.56 499.58 141.7 499.45 141.84C499.3 141.98 499.16 142.12 499.02 142.27C498.87 142.41 498.73 142.55 498.6 142.69C498.45 142.83 498.31 142.97 498.17 143.12C498.02 143.26 497.88 143.4 497.75 143.54C497.6 143.68 497.46 143.82 497.32 143.97C497.17 144.11 497.03 144.25 496.89 144.4C496.74 144.54 496.6 144.68 496.47 144.82C496.32 144.96 496.18 145.1 496.04 145.25C495.89 145.39 495.75 145.53 495.62 145.67C495.47 145.81 495.33 145.95 495.19 146.1C495.04 146.24 494.9 146.38 494.77 146.52C492.9 148.22 492.41 150.71 492.18 151.86C491.91 153.23 491.7 154.58 491.5 155.89C491.28 157.34 491.07 158.71 490.79 160.05C490.04 163.61 489.09 167.1 488.02 170.55C487.71 169.86 487.42 169.22 487.16 168.67C486.9 168.11 486.61 167.48 486.51 167.23C486.1 165.75 484.73 162.06 484.26 161.22C482.76 158.54 482.11 156.49 481.23 153.64C481.02 152.95 480.79 152.23 480.54 151.47C480.27 150.64 480.01 149.82 479.75 148.99C477.5 141.94 475.18 134.67 470.48 128.26C473.37 124.93 475.85 121.37 478.1 117.74C479.96 120.42 482.32 123.51 486.37 125.02C491.03 126.75 495.79 128.32 500.4 129.84L502.35 130.48C502.49 130.53 502.64 130.58 502.8 130.64C504.01 131.09 507.62 132.41 510.18 129.59C510.32 129.46 510.47 129.32 510.61 129.16C510.75 129.03 510.9 128.89 511.03 128.74C511.17 128.61 511.32 128.47 511.46 128.31C511.6 128.18 511.75 128.04 511.88 127.89C512.02 127.76 512.17 127.62 512.31 127.46C512.45 127.33 512.6 127.19 512.74 127.03C512.88 126.9 513.03 126.76 513.17 126.6C513.31 126.47 513.46 126.33 513.6 126.17C513.74 126.04 513.89 125.9 514.02 125.75C514.16 125.62 514.31 125.48 514.45 125.32C514.59 125.19 514.74 125.05 514.87 124.9C515.01 124.77 515.16 124.63 515.3 124.47C515.44 124.34 515.59 124.2 515.73 124.04C515.87 123.91 516.02 123.77 516.16 123.61C516.38 123.41 516.61 123.19 516.82 122.93C518.77 120.53 518.58 117.79 516.24 114.79C516.12 114.64 516 114.49 515.9 114.34C514.64 112.45 513.36 110.58 512.08 108.71C509.58 105.07 507 101.3 504.67 97.52C498.35 87.29 496.56 77.02 499.2 66.11C501.14 58.08 500.47 56.27 494.08 52.28L493.13 51.68C491.1 50.4 489.01 49.37 486.98 48.38C483.9 46.87 480.99 45.44 478.69 43.33L478.49 43.14C477.51 42.23 474.52 39.44 470.62 41.59C469.91 41.98 469.31 42.47 468.8 43.02C468.65 43.16 468.51 43.3 468.37 43.45C468.22 43.59 468.08 43.73 467.94 43.88C467.79 44.02 467.65 44.16 467.52 44.3C467.37 44.44 467.23 44.58 467.09 44.73C466.94 44.87 466.8 45.01 466.67 45.15C466.52 45.29 466.38 45.43 466.24 45.58C466.09 45.72 465.95 45.86 465.82 46C465.67 46.14 465.53 46.28 465.39 46.43C465.24 46.57 465.1 46.71 464.96 46.86C464.81 47 464.67 47.14 464.54 47.28C464.39 47.42 464.25 47.56 464.11 47.71C463.96 47.85 463.82 47.99 463.69 48.13C463.54 48.27 463.4 48.41 463.26 48.56C463.11 48.7 462.97 48.84 462.84 48.98C461.33 50.35 460.54 52.28 460.5 54.78C460.43 59.13 459.82 63.28 458.69 67.13C453.38 85.16 446.16 100.47 436.64 113.92C436.56 114 436.48 114.08 436.4 114.16C436.26 114.3 436.11 114.44 435.97 114.59C435.83 114.73 435.68 114.87 435.55 115.01C435.41 115.15 435.26 115.29 435.12 115.44C434.98 115.58 434.83 115.72 434.7 115.86C434.56 116 434.41 116.14 434.27 116.29C434.13 116.43 433.98 116.57 433.85 116.71C433.71 116.85 433.56 116.99 433.42 117.14C433.28 117.28 433.13 117.42 432.99 117.57C432.85 117.71 432.7 117.85 432.57 117.99C432.43 118.13 432.28 118.27 432.14 118.42C432 118.56 431.85 118.7 431.72 118.84C431.58 118.98 431.43 119.12 431.29 119.27C431.15 119.41 431 119.55 430.87 119.69C430.79 119.76 430.72 119.84 430.64 119.92C433.48 110.04 436.62 102.23 440.51 95.41C442.3 92.28 444.16 88.91 445.67 85.12C446.75 82.41 446.84 80.12 445.96 78.13C444.81 75.53 442.35 74.33 440.34 73.57C439.19 73.14 438.04 72.71 436.89 72.29C430.93 70.08 424.76 67.79 419.15 65.04C411.84 61.46 405.17 61.73 397.5 65.93C397.22 66.08 396.77 66.24 396.29 66.41C395.92 66.54 395.55 66.67 395.19 66.81L392.79 67.76C380.04 72.79 366.85 78 354.67 85.25C354.67 85.17 354.66 85.08 354.65 85L354.58 84.33C353.71 75.92 352.05 72.19 339.77 71.8C332.67 71.57 325.41 70.74 318.18 69.32C313.79 68.46 310.49 69.15 308.4 71.39C308.34 71.45 308.28 71.52 308.23 71.59C308.15 71.67 308.06 71.73 307.98 71.82C307.92 71.88 307.86 71.95 307.81 72.02C307.73 72.1 307.64 72.16 307.56 72.25C307.5 72.31 307.44 72.38 307.39 72.45C307.31 72.53 307.22 72.59 307.14 72.68C307.08 72.74 307.02 72.81 306.97 72.88C306.89 72.96 306.8 73.02 306.72 73.11C306.66 73.17 306.6 73.24 306.54 73.31C306.46 73.39 306.37 73.45 306.29 73.54C306.23 73.6 306.17 73.67 306.12 73.74C306.04 73.82 305.95 73.88 305.87 73.97C305.81 74.03 305.75 74.1 305.69 74.17C305.61 74.25 305.52 74.31 305.44 74.4C305.38 74.46 305.32 74.53 305.27 74.6C305.19 74.68 305.1 74.74 305.02 74.83C304.96 74.89 304.9 74.96 304.85 75.03C304.77 75.11 304.68 75.17 304.6 75.26C304.54 75.32 304.48 75.39 304.43 75.46C304.35 75.54 304.26 75.6 304.18 75.69C304.12 75.75 304.06 75.82 304.01 75.89C303.93 75.97 303.84 76.03 303.76 76.12C303.7 76.18 303.64 76.25 303.58 76.32C303.5 76.4 303.41 76.46 303.33 76.55C303.27 76.61 303.21 76.68 303.16 76.75C303.08 76.83 302.99 76.89 302.91 76.98C302.85 77.04 302.79 77.11 302.73 77.18C302.65 77.26 302.56 77.32 302.48 77.41C302.42 77.47 302.36 77.54 302.31 77.61C302.23 77.69 302.14 77.75 302.06 77.84C300.69 79.31 299.31 82.06 300.58 86.84C301.39 89.89 302.11 92.98 302.78 96.08C302.39 95.42 301.92 94.79 301.36 94.22C300.53 93.39 299.38 92.97 298.23 93.05C296.36 88.65 293.55 85.28 289.73 82.83C286.82 80.96 284.29 79 282.01 76.82C278.24 73.22 273.65 72.15 269.74 73.97C268.58 74.51 267.66 75.21 266.93 76C266.78 76.14 266.64 76.28 266.5 76.43C266.35 76.57 266.21 76.71 266.07 76.86C265.92 77 265.78 77.14 265.65 77.28C265.5 77.42 265.36 77.56 265.22 77.71C265.07 77.85 264.93 77.99 264.8 78.13C264.65 78.27 264.51 78.41 264.37 78.56C264.22 78.7 264.08 78.84 263.95 78.98C263.8 79.12 263.66 79.26 263.52 79.41C263.37 79.55 263.23 79.69 263.09 79.84C262.94 79.98 262.8 80.12 262.67 80.26C262.52 80.4 262.38 80.54 262.24 80.69C262.09 80.83 261.95 80.97 261.82 81.11C261.67 81.25 261.53 81.39 261.39 81.54C261.3 81.63 261.2 81.71 261.12 81.8C261.64 77.57 262.77 73.37 263.94 68.99C264.26 67.82 264.57 66.64 264.88 65.47C266.12 60.68 267.47 55.82 268.77 51.11C272.14 38.96 275.62 26.39 277.69 13.58C277.94 12.02 278.19 9.93001 277.82 7.67001C277.34 4.65001 275.5 2.57001 272.89 2.11001C270.95 1.76001 269.09 2.45001 267.73 3.86001C267.58 3.99001 267.44 4.14001 267.3 4.29001C267.15 4.42001 267.01 4.57001 266.87 4.72001C266.72 4.85001 266.58 5.00001 266.45 5.14001C266.3 5.27001 266.16 5.42001 266.02 5.57001C265.87 5.70001 265.73 5.85001 265.6 5.99001C265.45 6.12001 265.31 6.27001 265.17 6.42001C265.02 6.55001 264.88 6.70001 264.75 6.85001C264.6 6.98001 264.46 7.13001 264.32 7.28001C264.17 7.41001 264.03 7.56001 263.89 7.71001C263.74 7.84001 263.6 7.99001 263.47 8.13001C263.32 8.26001 263.18 8.41001 263.04 8.56001C262.89 8.69001 262.75 8.84001 262.62 8.98001C262.47 9.11001 262.33 9.26001 262.19 9.41001C262.04 9.54001 261.9 9.69 261.77 9.84C260.95 10.54 260.28 11.48 259.84 12.61L259.47 13.55C258.74 15.41 257.99 17.32 257.4 19.36L256.59 22.16C254.51 29.38 252.39 36.77 250.29 44.17C250.67 42.3 251.04 40.43 251.4 38.59C252.64 32.35 253.92 25.89 255.32 19.59C255.85 17.21 256.23 13.66 253.43 10.27C252.56 9.21001 250.72 8.02001 249.04 7.89001C247.88 7.80001 246.79 8.17001 245.94 8.92001C245.67 9.17001 245.41 9.42001 245.16 9.69001C245.02 9.83001 244.87 9.97001 244.73 10.12C244.59 10.26 244.44 10.4 244.3 10.55C244.16 10.69 244.01 10.83 243.88 10.97C243.74 11.11 243.59 11.25 243.45 11.4C243.31 11.54 243.16 11.68 243.03 11.82C242.89 11.96 242.74 12.1 242.6 12.25C242.46 12.39 242.31 12.53 242.18 12.67C242.04 12.81 241.89 12.95 241.75 13.1C241.61 13.24 241.46 13.38 241.32 13.53C241.18 13.67 241.03 13.81 240.9 13.95C240.76 14.09 240.61 14.23 240.47 14.38C240.33 14.52 240.18 14.66 240.05 14.8C239.91 14.94 239.76 15.08 239.62 15.23C239.48 15.37 239.33 15.51 239.2 15.65C237.33 17.48 236.19 19.88 235.77 22.98C235.21 27.09 234.28 31.1 233.29 35.34C232.77 37.6 232.22 39.94 231.75 42.27C231.1 45.46 230.25 48.73 229.43 51.88C228.02 57.31 226.58 62.89 225.94 68.71C221.3 65.99 216.78 62.95 212.39 59.98C210.28 58.56 208.18 57.13 206.05 55.74C199.81 51.65 195.42 55.67 193.33 57.81C193.18 57.96 193.04 58.1 192.9 58.24C192.75 58.39 192.61 58.53 192.47 58.67C192.32 58.82 192.18 58.96 192.05 59.09C191.9 59.24 191.75 59.38 191.62 59.52C191.47 59.67 191.33 59.81 191.2 59.94C191.05 60.09 190.9 60.23 190.77 60.37C190.62 60.52 190.48 60.66 190.35 60.79C190.2 60.94 190.06 61.08 189.92 61.22C189.77 61.37 189.63 61.51 189.49 61.65C189.34 61.8 189.2 61.94 189.07 62.07C188.92 62.22 188.77 62.36 188.64 62.5C188.49 62.65 188.35 62.79 188.22 62.92C188.07 63.07 187.92 63.21 187.79 63.35C187.64 63.5 187.5 63.64 187.37 63.77C187.09 64.04 186.84 64.3 186.63 64.52C183.8 67.45 183.35 70.78 182.98 73.46C182.88 74.21 182.78 74.91 182.64 75.54C179.61 89.22 173.59 102.21 167.77 114.76C166.8 116.86 165.83 118.95 164.87 121.05C162.48 126.28 159.5 131.15 156.34 136.3C153.35 141.18 150.25 146.22 147.72 151.59C147.7 151.64 147.68 151.68 147.68 151.68C147.11 152.46 146.3 153.68 145.92 155.25C145.7 156.18 145.44 157.1 145.19 158.03C144.8 159.44 144.4 160.91 144.09 162.43C143.4 165.77 142.96 169.21 142.6 171.97C142.46 173.01 142.31 174.06 142.16 175.12C141.46 179.97 140.73 184.98 141.45 190.18C141.61 191.31 142.23 192.31 143.17 192.95C144.05 193.54 145.12 193.76 146.16 193.56C146.87 193.7 147.69 194.11 148.62 194.58L148.76 194.65C153.19 196.86 157.52 199.01 161.91 201.02L162.12 201.11C164.09 202.01 168.71 204.14 172.1 200.62C175.22 197.39 179.44 197.33 184.32 197.27C184.88 197.27 185.44 197.26 185.99 197.24C187.52 197.21 189.06 197.17 190.59 197.13C199.64 196.9 208.99 196.66 218.14 197.55C221.9 197.92 225.67 198.27 229.43 198.61C239.32 199.53 249.54 200.48 259.5 201.74C264.9 202.43 270.33 202.62 275.58 202.81C282.3 203.05 288.64 203.27 294.95 204.44C295.57 204.55 296.15 204.61 296.7 204.61C298.99 204.61 300.63 203.68 301.7 202.42C301.84 202.28 302 202.15 302.13 201.99C302.27 201.85 302.43 201.72 302.55 201.57C302.69 201.43 302.85 201.3 302.98 201.14C303.12 201 303.28 200.87 303.4 200.72C303.54 200.58 303.7 200.45 303.83 200.29C303.97 200.15 304.13 200.02 304.26 199.86C304.4 199.72 304.56 199.59 304.69 199.43C304.83 199.29 304.99 199.16 305.12 199C305.26 198.86 305.42 198.73 305.54 198.58C305.68 198.44 305.84 198.31 305.97 198.15C306.11 198.01 306.27 197.88 306.39 197.73C306.53 197.59 306.69 197.46 306.82 197.3C306.96 197.16 307.12 197.03 307.25 196.87C307.39 196.73 307.55 196.6 307.68 196.44C308.55 195.6 309.13 194.56 309.42 193.53C310.26 190.52 309.38 186.77 304.36 185.25C304.05 185.16 303.1 184.87 302.77 183.35C301.95 179.55 300.55 176.07 299.19 172.71C298 169.77 296.88 167 296.19 164.14C295.04 159.38 293.88 153.98 293.84 148.54C293.89 148.49 293.95 148.46 293.99 148.41C294.04 148.35 294.08 148.29 294.13 148.23C294.22 148.14 294.33 148.08 294.42 147.98C294.47 147.92 294.51 147.86 294.56 147.8C294.65 147.71 294.76 147.65 294.84 147.55C294.89 147.49 294.93 147.43 294.98 147.37C295.07 147.28 295.18 147.22 295.27 147.12C295.32 147.06 295.36 147 295.41 146.94C295.5 146.85 295.61 146.79 295.69 146.69C295.74 146.63 295.78 146.57 295.83 146.51C295.92 146.42 296.03 146.36 296.12 146.26C296.17 146.2 296.21 146.14 296.26 146.08C296.35 145.99 296.46 145.93 296.54 145.83C296.59 145.77 296.63 145.71 296.68 145.65C296.77 145.56 296.88 145.5 296.96 145.4C297.01 145.34 297.05 145.28 297.1 145.22C297.19 145.13 297.3 145.07 297.39 144.97C297.44 144.91 297.48 144.85 297.53 144.79C297.62 144.7 297.73 144.64 297.81 144.54C297.86 144.48 297.9 144.42 297.95 144.36C298.04 144.27 298.15 144.21 298.24 144.11C298.29 144.05 298.33 143.99 298.38 143.93C298.47 143.84 298.58 143.78 298.66 143.68C298.71 143.62 298.75 143.56 298.8 143.5C298.89 143.41 299 143.35 299.09 143.25C299.14 143.19 299.18 143.13 299.23 143.07C299.32 142.98 299.43 142.92 299.51 142.82C301.09 141.13 300.92 139.03 300.82 137.91C300.82 137.79 300.8 137.66 300.79 137.55C301.2 133.08 301.46 128.55 301.71 124.17C302.14 116.69 302.58 108.95 303.8 101.52C303.81 101.45 303.81 101.37 303.82 101.3C305 107.33 306.02 113.38 307.02 119.33L307.78 123.88C308.63 128.89 309.37 134.04 310.09 139.01C310.92 144.78 311.79 150.75 312.83 156.62C313.53 160.6 314.48 164.54 315.39 168.36C316.7 173.83 317.93 179 318.52 184.25C319.03 188.74 319.92 193.15 320.79 197.42C322.25 204.62 323.64 211.42 323.26 218.45C322.71 228.67 331.32 229.2 334.15 229.37C334.8 229.41 335.46 229.43 336.1 229.43C340.64 229.43 345 228.52 348.4 227.68C351.33 226.96 354.29 226.01 356.59 223.63C356.74 223.5 356.88 223.35 357.02 223.2C357.16 223.07 357.3 222.92 357.44 222.78C357.59 222.65 357.73 222.5 357.87 222.35C358.01 222.22 358.15 222.07 358.29 221.93C358.44 221.8 358.58 221.65 358.72 221.5C358.87 221.37 359.01 221.22 359.15 221.07C359.3 220.94 359.43 220.79 359.58 220.64C359.73 220.51 359.87 220.36 360.01 220.21C360.15 220.08 360.29 219.93 360.43 219.79C360.58 219.66 360.72 219.51 360.86 219.36C361 219.23 361.14 219.08 361.28 218.94C361.43 218.81 361.57 218.66 361.71 218.51C361.86 218.38 362 218.23 362.14 218.08C362.29 217.95 362.42 217.8 362.57 217.65C362.65 217.58 362.72 217.5 362.8 217.43C363.62 217.71 364.45 217.91 365.22 218.07C372.13 219.49 378.83 219.63 385.31 219.76L386.13 219.78C391 219.88 396.33 219.92 402.28 219.53C403.65 219.44 404.83 218.8 405.64 217.86C405.79 217.72 405.93 217.59 406.07 217.43C406.22 217.29 406.36 217.16 406.49 217.01C406.64 216.87 406.78 216.74 406.92 216.58C407.07 216.44 407.21 216.31 407.34 216.16C407.49 216.02 407.63 215.89 407.77 215.73C407.92 215.59 408.06 215.46 408.2 215.3C408.35 215.16 408.49 215.03 408.63 214.87C408.78 214.73 408.92 214.6 409.06 214.44C409.21 214.3 409.35 214.17 409.48 214.02C409.63 213.88 409.77 213.75 409.91 213.59C410.06 213.45 410.2 213.32 410.33 213.17C410.48 213.03 410.62 212.9 410.76 212.74C410.91 212.6 411.05 212.47 411.19 212.31C411.34 212.17 411.48 212.04 411.62 211.88C412.61 210.98 413.22 209.69 413.16 208.26L413.13 207.71C413.11 207.36 413.09 207.01 413.1 206.69C413.15 204.85 413.41 202.94 413.66 201.1L413.79 200.12C414.04 198.34 414.29 196.5 414.37 194.56V194.27C414.45 192.6 414.51 191.02 414.8 189.57C414.83 189.43 414.86 189.31 414.9 189.19C414.96 188.99 415.01 188.8 415.06 188.58C415.13 188.24 415.22 187.99 415.35 187.64C415.47 187.29 415.59 186.94 415.7 186.54C418.5 176.51 420.49 167.1 421.77 157.79C423.04 148.52 425.33 139.25 427.82 130.15C428.15 131.41 428.66 132.44 429.04 133.09C429.53 133.92 430.05 134.59 430.51 135.18C430.69 135.41 430.87 135.65 431.05 135.9C431.45 136.46 432.01 137.1 432.53 137.63C433.14 138.24 433.6 138.63 434 138.98C434.16 139.11 434.31 139.25 434.49 139.4C435.92 140.67 436.78 141.81 437.48 143.35C438.82 146.31 439.6 149.51 440.42 152.9C440.93 155 441.46 157.18 442.14 159.34C446.31 172.56 450.9 186.57 457.21 199.89C458.4 202.4 459.43 204.97 460.52 207.69C461.73 210.7 462.98 213.82 464.47 216.85C469.05 226.18 474.33 233.16 485.23 236.88C485.8 237.07 486.36 237.27 486.92 237.46C488.94 238.17 491.03 238.9 493.48 239.52C495.44 240.02 497.44 240.53 499.32 240.53C500.79 240.53 502.19 240.22 503.45 239.35C503.87 239.06 504.22 238.72 504.55 238.36C504.7 238.22 504.84 238.08 504.98 237.93C505.13 237.79 505.27 237.65 505.4 237.51C505.55 237.37 505.69 237.23 505.83 237.08C505.98 236.94 506.12 236.8 506.25 236.66C506.4 236.52 506.54 236.38 506.68 236.23C506.83 236.09 506.97 235.95 507.11 235.8C507.26 235.66 507.4 235.52 507.54 235.37C507.69 235.23 507.83 235.09 507.97 234.94C508.12 234.8 508.26 234.66 508.39 234.52C508.54 234.38 508.68 234.24 508.82 234.09C508.97 233.95 509.11 233.81 509.24 233.67C509.39 233.53 509.53 233.39 509.67 233.24C509.82 233.1 509.96 232.96 510.1 232.81C510.25 232.67 510.39 232.53 510.53 232.38C512.64 230.44 513.17 227.34 513.5 224.29C514.17 218.17 515.7 212.24 516.97 207.75C518.57 202.08 520.53 196.35 522.44 190.81C525.86 180.86 529.39 170.58 531.11 159.77C531.23 158.99 531.4 157.97 531.3 156.86C533.01 157.7 534.76 158.49 536.57 159.2C537.11 159.41 537.69 159.61 538.29 159.81C541.65 160.94 541.62 161.24 541.56 161.89C541.35 163.97 541.23 166.06 541.11 168.08C540.86 172.35 540.63 176.38 539.62 180.28C538.37 185.14 538.82 189.16 540.98 192.21C543.05 195.15 546.44 196.85 551.05 197.27C560.99 198.17 569.64 199.61 577.48 201.68C579.65 202.26 581.84 201.99 583.62 200.95C584.24 200.59 584.79 200.14 585.28 199.62C585.43 199.49 585.57 199.34 585.71 199.19C585.86 199.06 586 198.91 586.13 198.77C586.28 198.64 586.42 198.49 586.56 198.34C586.71 198.21 586.85 198.06 586.98 197.92C587.13 197.79 587.27 197.64 587.41 197.49C587.56 197.36 587.7 197.21 587.84 197.06C587.99 196.93 588.13 196.78 588.27 196.63C588.42 196.5 588.56 196.35 588.7 196.2C588.85 196.07 588.99 195.92 589.12 195.78C589.27 195.65 589.41 195.5 589.55 195.35C589.7 195.22 589.84 195.07 589.97 194.93C590.12 194.8 590.26 194.65 590.4 194.5C590.55 194.37 590.69 194.22 590.83 194.07C590.98 193.94 591.12 193.79 591.26 193.64C592.42 192.59 593.27 191.16 593.71 189.5C594.39 186.92 595.31 183.37 593.91 179.86C592.23 175.63 592.58 171.02 592.95 166.15L593.02 165.21C593.54 158.23 593.99 150.75 593.85 143.22C598.26 140.35 602.52 137.69 607.15 135.79C607.92 135.47 609.07 135.01 610.06 134.64C610.1 135.64 610.11 136.83 610.12 137.83C610.15 140.31 610.12 142.85 610.09 145.31C610.04 150.49 609.98 155.84 610.39 161.16C610.63 164.27 610.38 167.4 610.11 170.71C609.78 174.82 609.44 179.06 610.03 183.56C610.76 189.17 611.21 194.97 611.65 200.58C612.18 207.39 612.73 214.42 613.78 221.37L613.83 221.72C615.24 231.14 616.62 232.51 626.14 233.94C626.82 234.04 627.5 234.17 628.17 234.3L631.46 234.92C638.44 236.22 644.47 237.34 650.83 239.17C651.91 239.48 652.87 239.61 653.73 239.61C656.08 239.61 657.62 238.61 658.61 237.55C658.76 237.41 658.9 237.27 659.04 237.12C659.19 236.98 659.33 236.84 659.46 236.7C659.62 236.56 659.75 236.42 659.89 236.27C660.04 236.13 660.18 235.99 660.31 235.85C660.46 235.71 660.6 235.57 660.74 235.42C660.89 235.28 661.03 235.14 661.17 234.99C661.32 234.85 661.46 234.71 661.6 234.56C661.75 234.42 661.89 234.28 662.03 234.13C662.18 233.99 662.32 233.85 662.45 233.71C662.61 233.57 662.74 233.43 662.88 233.28C663.03 233.14 663.17 233 663.3 232.86C663.45 232.72 663.59 232.58 663.73 232.43C663.88 232.29 664.02 232.15 664.16 232C664.31 231.86 664.45 231.72 664.59 231.57C665.21 231.02 665.65 230.41 665.96 229.89C666.82 228.44 669.11 224.59 666.44 220.49C665.56 219.14 665.2 217.37 664.88 215.53C663.07 205.12 662.01 196.54 661.55 188.52C661.52 188.05 661.48 187.33 661.46 186.54C661.55 186.52 661.64 186.5 661.72 186.49C668.76 185.05 675.63 182.9 682.28 180.82C687.63 179.15 693.17 177.41 698.65 176.11C700.6 175.65 701.86 174.74 702.69 173.84C702.84 173.7 702.98 173.56 703.12 173.41C703.27 173.27 703.41 173.13 703.54 172.99C703.69 172.85 703.84 172.71 703.97 172.56C704.12 172.42 704.26 172.28 704.39 172.14C704.54 172 704.68 171.86 704.82 171.71C704.97 171.57 705.11 171.43 705.25 171.28C705.4 171.14 705.54 171 705.68 170.85C705.83 170.71 705.97 170.57 706.11 170.42C706.26 170.28 706.4 170.14 706.53 170C706.68 169.86 706.83 169.72 706.96 169.57C707.11 169.43 707.25 169.29 707.38 169.15C707.53 169.01 707.67 168.87 707.81 168.72C707.96 168.58 708.1 168.44 708.24 168.29C708.39 168.15 708.53 168.01 708.67 167.86C709.24 167.34 709.65 166.79 709.94 166.31C710.62 165.15 711.27 163.21 710.52 160.58L710.31 160.73ZM255.79 103.5C254.84 109.91 253.87 116.53 253.44 123.16C252.43 138.96 255.18 155.43 262.1 174.93C254.73 173.75 247.29 173.12 240.08 172.51C234.11 172.01 227.94 171.48 221.96 170.66C211.32 169.19 200.87 167.63 191.84 166.27C193.85 162.72 196.18 158.35 198.1 153.67L198.27 153.25C198.56 152.55 198.84 151.87 199.13 151.2C199.95 150.61 200.7 149.97 201.36 149.28C201.5 149.14 201.65 149 201.79 148.85C201.93 148.71 202.08 148.57 202.21 148.43C202.35 148.29 202.5 148.15 202.64 148C202.78 147.86 202.93 147.72 203.06 147.58C203.2 147.44 203.35 147.3 203.49 147.15C203.63 147.01 203.78 146.87 203.92 146.72C204.06 146.58 204.21 146.44 204.35 146.29C204.49 146.15 204.64 146.01 204.78 145.86C204.92 145.72 205.07 145.58 205.2 145.44C205.34 145.3 205.49 145.16 205.63 145.01C205.77 144.87 205.92 144.73 206.05 144.59C206.19 144.45 206.34 144.31 206.48 144.16C206.62 144.02 206.77 143.88 206.91 143.73C207.05 143.59 207.2 143.45 207.34 143.3C209.53 141.18 210.99 138.6 212.22 136.02C214.09 132.1 215.89 128.1 217.63 124.22L219.28 120.55C223.96 110.15 228.78 99.43 232.39 88.21C232.54 88.22 232.7 88.23 232.86 88.23C233.46 88.23 234.09 88.16 234.73 88C236.33 87.62 237.5 86.9 238.31 86C238.46 85.86 238.6 85.72 238.74 85.57C238.89 85.43 239.03 85.29 239.16 85.15C239.31 85.01 239.45 84.87 239.59 84.72C239.74 84.58 239.88 84.44 240.01 84.3C240.16 84.16 240.3 84.02 240.44 83.87C240.59 83.73 240.73 83.59 240.87 83.44C241.02 83.3 241.16 83.16 241.3 83.01C241.45 82.87 241.59 82.73 241.73 82.58C241.86 82.46 241.98 82.35 242.1 82.22C241.87 83.74 241.63 85.22 241.36 86.68C241.3 87 241.28 87.33 241.3 87.66C241.36 88.63 241.4 89.5 241.44 90.28C241.52 92.01 241.59 93.51 241.86 95.05C241.88 95.19 241.88 95.6 241.88 95.87C241.88 97.38 241.9 99.66 243.65 101.38C244.36 102.07 245.6 102.9 247.5 102.9C247.53 102.9 247.56 102.9 247.59 102.9C249.45 102.88 250.75 102.11 251.69 101.07C251.84 100.93 251.98 100.79 252.12 100.64C252.27 100.5 252.41 100.36 252.54 100.22C252.69 100.08 252.83 99.94 252.97 99.79C253.12 99.65 253.26 99.51 253.39 99.37C253.54 99.23 253.68 99.09 253.82 98.94C253.97 98.8 254.11 98.66 254.25 98.51C254.4 98.37 254.54 98.23 254.68 98.08C254.83 97.94 254.97 97.8 255.11 97.65C255.26 97.51 255.4 97.37 255.53 97.23C255.68 97.09 255.82 96.95 255.96 96.8C256.11 96.66 256.25 96.52 256.38 96.38C256.53 96.24 256.67 96.1 256.81 95.95C256.84 95.92 256.88 95.89 256.91 95.86C256.57 98.38 256.2 100.94 255.83 103.42L255.79 103.5ZM377.57 123.2C376.82 126.15 376.05 129.18 375.4 132.23C374.18 137.97 372.99 143.73 371.8 149.48C370.22 157.14 368.59 165 366.89 172.8C366.73 171.75 366.57 170.71 366.41 169.68C365.52 163.95 364.67 158.53 364.79 153.02C364.9 147.66 363.84 142.42 362.8 137.35C362.49 135.84 362.19 134.3 361.91 132.77C367.04 129.23 372.27 126.02 377.56 123.2H377.57ZM486.62 167.67C486.6 167.57 486.57 167.43 486.52 167.27C486.58 167.44 486.6 167.57 486.62 167.67Z" fill="#1D1D1B" stroke="white" stroke-width="3" stroke-miterlimit="10"/>
<path d="M141.2 151.07C141.68 147.96 142.14 145.02 142.96 142.17C143.09 142.05 143.22 141.91 143.36 141.77C143.5 141.64 143.64 141.49 143.79 141.34C143.93 141.21 144.07 141.06 144.21 140.92C144.35 140.79 144.49 140.64 144.64 140.49C144.78 140.36 144.92 140.21 145.07 140.06C145.21 139.93 145.35 139.78 145.5 139.63C146.38 138.82 147.27 137.69 147.62 136.03L147.68 135.77C148.86 130.18 150.08 124.4 150.56 118.53C151.54 106.5 151.22 94.36 150.92 82.63C150.66 72.66 150.39 62.36 150.94 52.3C151.13 48.73 148.99 46.83 146.92 46.26C141.36 44.71 137.04 43.33 132.65 41.25C131.73 40.82 130.82 40.4 129.91 39.98C125.77 38.07 121.85 36.26 118.49 33.74C117.15 32.74 115.07 31.45 112.54 31.82C110.83 32.07 109.58 32.97 108.58 34.03C108.43 34.17 108.29 34.31 108.15 34.46C108 34.6 107.86 34.74 107.72 34.89C107.57 35.03 107.43 35.17 107.3 35.31C107.15 35.45 107.01 35.59 106.87 35.74C106.72 35.88 106.58 36.02 106.45 36.16C106.3 36.3 106.16 36.44 106.02 36.59C105.87 36.73 105.73 36.87 105.6 37.01C105.45 37.15 105.31 37.29 105.17 37.44C105.02 37.58 104.88 37.72 104.74 37.87C104.59 38.01 104.45 38.15 104.32 38.29C104.17 38.43 104.03 38.57 103.89 38.72C103.74 38.86 103.6 39 103.47 39.14C103.32 39.28 103.18 39.42 103.04 39.57C102.89 39.71 102.75 39.85 102.62 39.99C102.01 40.56 101.48 41.2 101.02 41.83C97.95 46 95.06 50.35 92.2 55.13C87.64 62.73 84.14 69.8 80.04 78.24C77.08 84.34 74.72 89.24 72.49 94.46C70.47 92.16 68.33 89.9 66.22 87.68C62.06 83.31 57.76 78.79 54.91 74.36C54.91 74.31 54.91 74.26 54.91 74.21C54.69 71 53.2 69.01 50.48 68.28C49.05 67.9 47.63 67.5 46.21 67.11C42.33 66.03 38.31 64.92 34.24 64.08C31.19 63.45 28.3 62.63 25.24 61.77C23.01 61.14 20.71 60.49 18.24 59.88C18.19 59.85 18.13 59.83 18.08 59.8C17.27 59.39 15.57 58.55 13.51 59.26C12.89 59.48 12.1 59.9 11.38 60.7C11.24 60.83 11.09 60.97 10.95 61.13C10.81 61.26 10.66 61.4 10.52 61.56C10.38 61.69 10.23 61.83 10.09 61.99C9.94999 62.12 9.8 62.26 9.66 62.42C9.52 62.55 9.36999 62.69 9.22999 62.85C9.08999 62.98 8.94 63.12 8.8 63.28C8.66 63.41 8.50999 63.55 8.36999 63.71C8.22999 63.84 8.08 63.98 7.94 64.14C7.8 64.27 7.64999 64.41 7.50999 64.57C7.36999 64.7 7.22 64.84 7.08 65C6.94 65.13 6.78999 65.27 6.64999 65.43C6.50999 65.56 6.35999 65.7 6.21999 65.86C6.07999 65.99 5.92999 66.13 5.78999 66.29C5.64999 66.42 5.49999 66.56 5.35999 66.72C4.82999 67.19 4.31999 67.83 3.89999 68.72L3.63 69.28C2.65 71.3 1.16999 74.35 2.36999 77.83C3.08999 79.91 3.69 82.02 4.33 84.26C4.94 86.4 5.56999 88.6 6.30999 90.77C10.68 103.61 16.72 115.85 22.56 127.68C23.7 130 24.85 132.32 25.98 134.64L26.07 134.82C35.27 153.7 43.96 171.53 47.27 191.69C47.75 194.6 49.47 196.76 52.41 198.11C56.95 200.2 62.95 199.37 68.08 195.95C69.39 195.07 70.55 194.09 71.56 193.04C71.7 192.9 71.85 192.76 71.99 192.61C72.13 192.47 72.28 192.33 72.41 192.19C72.55 192.05 72.7 191.91 72.84 191.76C72.98 191.62 73.13 191.48 73.26 191.34C73.4 191.2 73.55 191.06 73.69 190.91C73.83 190.77 73.98 190.63 74.12 190.48C74.26 190.34 74.41 190.2 74.55 190.05C74.69 189.91 74.84 189.77 74.98 189.62C75.12 189.48 75.27 189.34 75.4 189.2C75.54 189.06 75.69 188.92 75.83 188.77C75.97 188.63 76.12 188.49 76.25 188.35C76.39 188.21 76.54 188.07 76.68 187.92C76.82 187.78 76.97 187.64 77.11 187.49C77.25 187.35 77.4 187.21 77.54 187.06C80.74 183.91 82.5 180.01 82.34 176.12C82.17 171.7 81.73 167 81.05 162.14C81.01 161.86 80.93 161.53 80.78 161.05C81.55 161.05 82.36 161.02 83.21 160.92C84.11 160.82 85.06 160.54 86.26 160.2C87.41 159.87 88.83 159.46 90.46 159.14C91.36 158.96 92.14 158.48 92.72 157.81C92.87 157.68 93.01 157.54 93.15 157.38C93.3 157.25 93.44 157.11 93.57 156.96C93.72 156.83 93.86 156.69 94 156.53C94.15 156.4 94.29 156.26 94.42 156.11C94.57 155.98 94.71 155.84 94.85 155.68C95 155.55 95.14 155.41 95.28 155.25C95.43 155.12 95.57 154.98 95.71 154.82C95.86 154.69 96 154.55 96.14 154.39C96.29 154.26 96.43 154.12 96.56 153.97C96.71 153.84 96.85 153.7 96.99 153.54C97.03 153.5 97.08 153.47 97.12 153.43C96.04 158.75 94.97 163.66 94.03 167.73C93.95 168.06 93.92 168.41 93.93 168.75C94.01 171.35 93.23 174.11 92.41 177.03C91.81 179.15 91.2 181.34 90.86 183.64C89.43 193.42 88.76 203.35 88.12 212.96C87.79 217.89 87.45 222.99 87.01 227.97C86.55 233.17 89 237.05 93.92 238.91C95.52 239.52 97.01 239.75 98.39 239.75C101.4 239.75 103.89 238.63 105.88 237.73C106.46 237.47 107.04 237.2 107.64 236.97C108.56 236.61 109.5 236.28 110.45 235.95C113.93 234.73 118.14 233.23 121.25 230.08C121.4 229.94 121.53 229.8 121.68 229.65C121.83 229.51 121.96 229.37 122.1 229.23C122.17 229.17 122.24 229.11 122.3 229.05C122.32 229.07 122.34 229.08 122.36 229.1C123.42 229.92 124.83 230.15 126.1 229.71C126.77 229.48 127.35 229.08 127.8 228.56C127.95 228.43 128.09 228.29 128.23 228.13C128.38 228 128.52 227.86 128.65 227.71C128.8 227.58 128.94 227.44 129.08 227.28C129.23 227.15 129.37 227.01 129.5 226.86C129.65 226.73 129.79 226.59 129.93 226.43C130.08 226.3 130.22 226.16 130.36 226C130.51 225.87 130.65 225.73 130.79 225.57C130.94 225.44 131.08 225.3 131.22 225.14C131.37 225.01 131.51 224.87 131.64 224.72C131.79 224.59 131.93 224.45 132.07 224.29C132.22 224.16 132.36 224.02 132.49 223.87C132.64 223.74 132.78 223.6 132.92 223.44C133.07 223.31 133.21 223.17 133.35 223.01C133.5 222.88 133.64 222.74 133.78 222.58C134.4 222.05 134.86 221.34 135.07 220.52C135.86 217.46 135.76 214.64 135.67 212.16C135.61 210.63 135.56 209.19 135.73 207.91C135.76 207.65 135.89 207.2 136.01 206.77C136.54 204.84 137.73 200.54 133.99 197.26C133.51 193.21 134.11 189.01 134.75 184.59C134.91 183.49 135.07 182.39 135.21 181.29L135.25 180.98C135.64 177.97 136.01 175.13 136.59 172.29C136.86 170.96 137.22 169.62 137.6 168.21C137.97 166.83 138.36 165.41 138.67 163.94C138.75 163.55 138.78 163.15 138.74 162.75C140.07 158.84 140.68 154.9 141.26 151.08L141.2 151.07Z" fill="#1D1D1B"/>
<path d="M710.31 160.73C709.15 156.66 705.56 154.52 701.36 155.4L700.75 155.53C698.42 156.02 696.01 156.53 693.61 157.23C689.23 158.52 684.86 159.84 680.48 161.15C680.5 161.13 680.51 161.1 680.53 161.07C680.68 160.94 680.83 160.8 680.96 160.64C681.11 160.51 681.26 160.37 681.38 160.22C681.53 160.09 681.68 159.95 681.81 159.79C681.96 159.66 682.11 159.52 682.24 159.36C682.39 159.23 682.54 159.09 682.67 158.93C682.82 158.8 682.97 158.66 683.1 158.5C683.25 158.37 683.4 158.23 683.52 158.08C683.67 157.95 683.82 157.81 683.95 157.65C684.1 157.52 684.25 157.38 684.37 157.23C684.52 157.1 684.67 156.96 684.8 156.8C684.95 156.67 685.1 156.53 685.23 156.37C685.38 156.24 685.53 156.1 685.66 155.94C686.01 155.62 686.33 155.26 686.55 154.83C687.13 153.71 687.14 152.37 686.59 151.23C682.28 142.45 679.5 141.27 670.93 144.58C668.68 145.45 666.35 146.14 663.89 146.87C662.46 147.29 661.03 147.72 659.61 148.18C659.61 148.12 659.59 148.05 659.58 147.98C659.45 147.05 659.64 145.97 659.86 144.71C660.14 143.09 660.47 141.25 660.2 139.16C659.4 132.83 659.41 126.53 659.44 119.86C659.44 118.12 659.45 116.39 659.44 114.66C660.24 114.27 660.87 113.76 661.38 113.19C661.53 113.05 661.67 112.91 661.81 112.76C661.96 112.62 662.1 112.48 662.23 112.34C662.38 112.2 662.52 112.06 662.66 111.91C662.81 111.77 662.95 111.63 663.08 111.49C663.23 111.35 663.37 111.21 663.51 111.06C663.66 110.92 663.8 110.78 663.94 110.63C664.09 110.49 664.23 110.35 664.37 110.2C664.52 110.06 664.66 109.92 664.8 109.77C664.95 109.63 665.09 109.49 665.22 109.35C665.37 109.21 665.51 109.07 665.65 108.92C665.8 108.78 665.94 108.64 666.07 108.5C666.22 108.36 666.36 108.22 666.5 108.07C666.65 107.93 666.79 107.79 666.93 107.64C667.08 107.5 667.22 107.36 667.36 107.21C669.16 105.56 669.64 103.23 669.89 101.99C670.3 99.94 670.24 96.18 665.21 94.03L663.91 93.47C662.19 92.73 660.42 91.96 658.59 91.28C658.59 91.28 658.59 91.27 658.59 91.26C658.27 84.8 657.68 77.19 655.74 69.78C655.5 68.88 655.32 67.9 655.13 66.86C654.25 62.15 652.92 55.04 643.92 52.8C639.57 51.72 635.19 52.31 631.92 54.42C631.09 54.95 630.35 55.58 629.69 56.27C629.54 56.41 629.4 56.55 629.26 56.7C629.11 56.84 628.97 56.98 628.83 57.13C628.68 57.27 628.54 57.41 628.41 57.55C628.26 57.69 628.12 57.83 627.98 57.98C627.83 58.12 627.69 58.26 627.56 58.4C627.41 58.54 627.27 58.68 627.13 58.83C626.98 58.97 626.84 59.11 626.71 59.25C626.56 59.39 626.42 59.53 626.28 59.68C626.13 59.82 625.99 59.96 625.85 60.11C625.7 60.25 625.56 60.39 625.43 60.53C625.28 60.67 625.14 60.81 625 60.96C624.85 61.1 624.71 61.24 624.58 61.38C624.43 61.52 624.29 61.66 624.15 61.81C624 61.95 623.86 62.09 623.73 62.23C621.81 64.05 620.53 66.45 620 69.29C619.59 71.5 619.1 73.68 618.57 75.98C617.64 80.07 616.69 84.27 616.28 88.64C612.86 90.25 609.43 91.87 606.01 93.47C600.48 96.06 594.95 98.65 589.43 101.27C589.08 96.31 588.16 91.49 587.27 86.81C586.45 82.5 585.67 78.43 585.31 74.28C585.01 70.82 583.37 68.58 580.16 67.22C575.52 65.25 570.73 63.87 566.1 62.52C563.35 61.72 560.5 60.9 557.78 59.97C554.68 58.92 552.09 59.12 550.08 60.56C549.72 60.82 549.4 61.12 549.11 61.44C548.96 61.57 548.82 61.72 548.68 61.87C548.53 62 548.39 62.15 548.25 62.3C548.1 62.43 547.96 62.58 547.82 62.72C547.67 62.85 547.53 63 547.39 63.15C547.24 63.28 547.1 63.43 546.97 63.57C546.82 63.7 546.68 63.85 546.54 64C546.39 64.13 546.25 64.28 546.12 64.42C545.97 64.55 545.83 64.7 545.69 64.85C545.54 64.98 545.4 65.13 545.26 65.28C545.11 65.41 544.97 65.56 544.83 65.7C544.68 65.83 544.54 65.98 544.4 66.13C544.25 66.26 544.11 66.41 543.98 66.55C543.83 66.68 543.69 66.83 543.55 66.98C543.4 67.11 543.26 67.26 543.13 67.4C541.44 68.92 540.59 71.27 540.61 74.42C540.61 75.55 540.65 76.68 540.69 77.81C540.77 80.31 540.84 82.67 540.59 84.92C539.27 96.85 540.18 108.73 541.07 120.22L541.29 123.1C541.42 124.79 541.43 126.17 541.29 127.33C538.26 128.75 535.44 130.51 532.71 132.23C531.32 133.1 530.01 133.93 528.68 134.71C527.77 135.24 527.08 135.81 526.55 136.39C526.4 136.53 526.26 136.67 526.12 136.82C525.97 136.96 525.83 137.1 525.69 137.25C525.54 137.39 525.4 137.53 525.27 137.67C525.12 137.81 524.97 137.95 524.84 138.1C524.69 138.24 524.55 138.38 524.42 138.52C524.27 138.66 524.12 138.8 523.99 138.95C523.84 139.09 523.7 139.23 523.57 139.37C523.42 139.51 523.28 139.65 523.14 139.8C522.99 139.94 522.85 140.08 522.71 140.23C522.56 140.37 522.42 140.51 522.29 140.65C522.14 140.79 521.99 140.93 521.86 141.08C521.71 141.22 521.57 141.36 521.44 141.5C521.29 141.64 521.14 141.78 521.01 141.93C520.86 142.07 520.72 142.21 520.59 142.35C519.2 143.64 518.72 145.01 518.61 146.13C517.06 145.12 515.42 144.15 513 142.8C512.63 142.59 512.28 142.43 511.94 142.27C511.86 142.23 511.78 142.2 511.7 142.16C509.56 139.16 507.02 137.97 504.16 138.6C502.63 138.94 501.53 139.68 500.73 140.56C500.58 140.7 500.44 140.84 500.3 140.99C500.15 141.13 500.01 141.27 499.87 141.42C499.72 141.56 499.58 141.7 499.45 141.84C499.3 141.98 499.16 142.12 499.02 142.27C498.87 142.41 498.73 142.55 498.6 142.69C498.45 142.83 498.31 142.97 498.17 143.12C498.02 143.26 497.88 143.4 497.75 143.54C497.6 143.68 497.46 143.82 497.32 143.97C497.17 144.11 497.03 144.25 496.89 144.4C496.74 144.54 496.6 144.68 496.47 144.82C496.32 144.96 496.18 145.1 496.04 145.25C495.89 145.39 495.75 145.53 495.62 145.67C495.47 145.81 495.33 145.95 495.19 146.1C495.04 146.24 494.9 146.38 494.77 146.52C492.9 148.22 492.41 150.71 492.18 151.86C491.91 153.23 491.7 154.58 491.5 155.89C491.28 157.34 491.07 158.71 490.79 160.05C490.04 163.61 489.09 167.1 488.02 170.55C487.71 169.86 487.42 169.22 487.16 168.67C486.9 168.11 486.61 167.48 486.51 167.23C486.1 165.75 484.73 162.06 484.26 161.22C482.76 158.54 482.11 156.49 481.23 153.64C481.02 152.95 480.79 152.23 480.54 151.47C480.27 150.64 480.01 149.82 479.75 148.99C477.5 141.94 475.18 134.67 470.48 128.26C473.37 124.93 475.85 121.37 478.1 117.74C479.96 120.42 482.32 123.51 486.37 125.02C491.03 126.75 495.79 128.32 500.4 129.84L502.35 130.48C502.49 130.53 502.64 130.58 502.8 130.64C504.01 131.09 507.62 132.41 510.18 129.59C510.32 129.46 510.47 129.32 510.61 129.16C510.75 129.03 510.9 128.89 511.03 128.74C511.17 128.61 511.32 128.47 511.46 128.31C511.6 128.18 511.75 128.04 511.88 127.89C512.02 127.76 512.17 127.62 512.31 127.46C512.45 127.33 512.6 127.19 512.74 127.03C512.88 126.9 513.03 126.76 513.17 126.6C513.31 126.47 513.46 126.33 513.6 126.17C513.74 126.04 513.89 125.9 514.02 125.75C514.16 125.62 514.31 125.48 514.45 125.32C514.59 125.19 514.74 125.05 514.87 124.9C515.01 124.77 515.16 124.63 515.3 124.47C515.44 124.34 515.59 124.2 515.73 124.04C515.87 123.91 516.02 123.77 516.16 123.61C516.38 123.41 516.61 123.19 516.82 122.93C518.77 120.53 518.58 117.79 516.24 114.79C516.12 114.64 516 114.49 515.9 114.34C514.64 112.45 513.36 110.58 512.08 108.71C509.58 105.07 507 101.3 504.67 97.52C498.35 87.29 496.56 77.02 499.2 66.11C501.14 58.08 500.47 56.27 494.08 52.28L493.13 51.68C491.1 50.4 489.01 49.37 486.98 48.38C483.9 46.87 480.99 45.44 478.69 43.33L478.49 43.14C477.51 42.23 474.52 39.44 470.62 41.59C469.91 41.98 469.31 42.47 468.8 43.02C468.65 43.16 468.51 43.3 468.37 43.45C468.22 43.59 468.08 43.73 467.94 43.88C467.79 44.02 467.65 44.16 467.52 44.3C467.37 44.44 467.23 44.58 467.09 44.73C466.94 44.87 466.8 45.01 466.67 45.15C466.52 45.29 466.38 45.43 466.24 45.58C466.09 45.72 465.95 45.86 465.82 46C465.67 46.14 465.53 46.28 465.39 46.43C465.24 46.57 465.1 46.71 464.96 46.86C464.81 47 464.67 47.14 464.54 47.28C464.39 47.42 464.25 47.56 464.11 47.71C463.96 47.85 463.82 47.99 463.69 48.13C463.54 48.27 463.4 48.41 463.26 48.56C463.11 48.7 462.97 48.84 462.84 48.98C461.33 50.35 460.54 52.28 460.5 54.78C460.43 59.13 459.82 63.28 458.69 67.13C453.38 85.16 446.16 100.47 436.64 113.92C436.56 114 436.48 114.08 436.4 114.16C436.26 114.3 436.11 114.44 435.97 114.59C435.83 114.73 435.68 114.87 435.55 115.01C435.41 115.15 435.26 115.29 435.12 115.44C434.98 115.58 434.83 115.72 434.7 115.86C434.56 116 434.41 116.14 434.27 116.29C434.13 116.43 433.98 116.57 433.85 116.71C433.71 116.85 433.56 116.99 433.42 117.14C433.28 117.28 433.13 117.42 432.99 117.57C432.85 117.71 432.7 117.85 432.57 117.99C432.43 118.13 432.28 118.27 432.14 118.42C432 118.56 431.85 118.7 431.72 118.84C431.58 118.98 431.43 119.12 431.29 119.27C431.15 119.41 431 119.55 430.87 119.69C430.79 119.76 430.72 119.84 430.64 119.92C433.48 110.04 436.62 102.23 440.51 95.41C442.3 92.28 444.16 88.91 445.67 85.12C446.75 82.41 446.84 80.12 445.96 78.13C444.81 75.53 442.35 74.33 440.34 73.57C439.19 73.14 438.04 72.71 436.89 72.29C430.93 70.08 424.76 67.79 419.15 65.04C411.84 61.46 405.17 61.73 397.5 65.93C397.22 66.08 396.77 66.24 396.29 66.41C395.92 66.54 395.55 66.67 395.19 66.81L392.79 67.76C380.04 72.79 366.85 78 354.67 85.25C354.67 85.17 354.66 85.08 354.65 85L354.58 84.33C353.71 75.92 352.05 72.19 339.77 71.8C332.67 71.57 325.41 70.74 318.18 69.32C313.79 68.46 310.49 69.15 308.4 71.39C308.34 71.45 308.28 71.52 308.23 71.59C308.15 71.67 308.06 71.73 307.98 71.82C307.92 71.88 307.86 71.95 307.81 72.02C307.73 72.1 307.64 72.16 307.56 72.25C307.5 72.31 307.44 72.38 307.39 72.45C307.31 72.53 307.22 72.59 307.14 72.68C307.08 72.74 307.02 72.81 306.97 72.88C306.89 72.96 306.8 73.02 306.72 73.11C306.66 73.17 306.6 73.24 306.54 73.31C306.46 73.39 306.37 73.45 306.29 73.54C306.23 73.6 306.17 73.67 306.12 73.74C306.04 73.82 305.95 73.88 305.87 73.97C305.81 74.03 305.75 74.1 305.69 74.17C305.61 74.25 305.52 74.31 305.44 74.4C305.38 74.46 305.32 74.53 305.27 74.6C305.19 74.68 305.1 74.74 305.02 74.83C304.96 74.89 304.9 74.96 304.85 75.03C304.77 75.11 304.68 75.17 304.6 75.26C304.54 75.32 304.48 75.39 304.43 75.46C304.35 75.54 304.26 75.6 304.18 75.69C304.12 75.75 304.06 75.82 304.01 75.89C303.93 75.97 303.84 76.03 303.76 76.12C303.7 76.18 303.64 76.25 303.58 76.32C303.5 76.4 303.41 76.46 303.33 76.55C303.27 76.61 303.21 76.68 303.16 76.75C303.08 76.83 302.99 76.89 302.91 76.98C302.85 77.04 302.79 77.11 302.73 77.18C302.65 77.26 302.56 77.32 302.48 77.41C302.42 77.47 302.36 77.54 302.31 77.61C302.23 77.69 302.14 77.75 302.06 77.84C300.69 79.31 299.31 82.06 300.58 86.84C301.39 89.89 302.11 92.98 302.78 96.08C302.39 95.42 301.92 94.79 301.36 94.22C300.53 93.39 299.38 92.97 298.23 93.05C296.36 88.65 293.55 85.28 289.73 82.83C286.82 80.96 284.29 79 282.01 76.82C278.24 73.22 273.65 72.15 269.74 73.97C268.58 74.51 267.66 75.21 266.93 76C266.78 76.14 266.64 76.28 266.5 76.43C266.35 76.57 266.21 76.71 266.07 76.86C265.92 77 265.78 77.14 265.65 77.28C265.5 77.42 265.36 77.56 265.22 77.71C265.07 77.85 264.93 77.99 264.8 78.13C264.65 78.27 264.51 78.41 264.37 78.56C264.22 78.7 264.08 78.84 263.95 78.98C263.8 79.12 263.66 79.26 263.52 79.41C263.37 79.55 263.23 79.69 263.09 79.84C262.94 79.98 262.8 80.12 262.67 80.26C262.52 80.4 262.38 80.54 262.24 80.69C262.09 80.83 261.95 80.97 261.82 81.11C261.67 81.25 261.53 81.39 261.39 81.54C261.3 81.63 261.2 81.71 261.12 81.8C261.64 77.57 262.77 73.37 263.94 68.99C264.26 67.82 264.57 66.64 264.88 65.47C266.12 60.68 267.47 55.82 268.77 51.11C272.14 38.96 275.62 26.39 277.69 13.58C277.94 12.02 278.19 9.93001 277.82 7.67001C277.34 4.65001 275.5 2.57001 272.89 2.11001C270.95 1.76001 269.09 2.45001 267.73 3.86001C267.58 3.99001 267.44 4.14001 267.3 4.29001C267.15 4.42001 267.01 4.57001 266.87 4.72001C266.72 4.85001 266.58 5.00001 266.45 5.14001C266.3 5.27001 266.16 5.42001 266.02 5.57001C265.87 5.70001 265.73 5.85001 265.6 5.99001C265.45 6.12001 265.31 6.27001 265.17 6.42001C265.02 6.55001 264.88 6.70001 264.75 6.85001C264.6 6.98001 264.46 7.13001 264.32 7.28001C264.17 7.41001 264.03 7.56001 263.89 7.71001C263.74 7.84001 263.6 7.99001 263.47 8.13001C263.32 8.26001 263.18 8.41001 263.04 8.56001C262.89 8.69001 262.75 8.84001 262.62 8.98001C262.47 9.11001 262.33 9.26001 262.19 9.41001C262.04 9.54001 261.9 9.69 261.77 9.84C260.95 10.54 260.28 11.48 259.84 12.61L259.47 13.55C258.74 15.41 257.99 17.32 257.4 19.36L256.59 22.16C254.51 29.38 252.39 36.77 250.29 44.17C250.67 42.3 251.04 40.43 251.4 38.59C252.64 32.35 253.92 25.89 255.32 19.59C255.85 17.21 256.23 13.66 253.43 10.27C252.56 9.21001 250.72 8.02001 249.04 7.89001C247.88 7.80001 246.79 8.17001 245.94 8.92001C245.67 9.17001 245.41 9.42001 245.16 9.69001C245.02 9.83001 244.87 9.97001 244.73 10.12C244.59 10.26 244.44 10.4 244.3 10.55C244.16 10.69 244.01 10.83 243.88 10.97C243.74 11.11 243.59 11.25 243.45 11.4C243.31 11.54 243.16 11.68 243.03 11.82C242.89 11.96 242.74 12.1 242.6 12.25C242.46 12.39 242.31 12.53 242.18 12.67C242.04 12.81 241.89 12.95 241.75 13.1C241.61 13.24 241.46 13.38 241.32 13.53C241.18 13.67 241.03 13.81 240.9 13.95C240.76 14.09 240.61 14.23 240.47 14.38C240.33 14.52 240.18 14.66 240.05 14.8C239.91 14.94 239.76 15.08 239.62 15.23C239.48 15.37 239.33 15.51 239.2 15.65C237.33 17.48 236.19 19.88 235.77 22.98C235.21 27.09 234.28 31.1 233.29 35.34C232.77 37.6 232.22 39.94 231.75 42.27C231.1 45.46 230.25 48.73 229.43 51.88C228.02 57.31 226.58 62.89 225.94 68.71C221.3 65.99 216.78 62.95 212.39 59.98C210.28 58.56 208.18 57.13 206.05 55.74C199.81 51.65 195.42 55.67 193.33 57.81C193.18 57.96 193.04 58.1 192.9 58.24C192.75 58.39 192.61 58.53 192.47 58.67C192.32 58.82 192.18 58.96 192.05 59.09C191.9 59.24 191.75 59.38 191.62 59.52C191.47 59.67 191.33 59.81 191.2 59.94C191.05 60.09 190.9 60.23 190.77 60.37C190.62 60.52 190.48 60.66 190.35 60.79C190.2 60.94 190.06 61.08 189.92 61.22C189.77 61.37 189.63 61.51 189.49 61.65C189.34 61.8 189.2 61.94 189.07 62.07C188.92 62.22 188.77 62.36 188.64 62.5C188.49 62.65 188.35 62.79 188.22 62.92C188.07 63.07 187.92 63.21 187.79 63.35C187.64 63.5 187.5 63.64 187.37 63.77C187.09 64.04 186.84 64.3 186.63 64.52C183.8 67.45 183.35 70.78 182.98 73.46C182.88 74.21 182.78 74.91 182.64 75.54C179.61 89.22 173.59 102.21 167.77 114.76C166.8 116.86 165.83 118.95 164.87 121.05C162.48 126.28 159.5 131.15 156.34 136.3C153.35 141.18 150.25 146.22 147.72 151.59C147.7 151.64 147.68 151.68 147.68 151.68C147.11 152.46 146.3 153.68 145.92 155.25C145.7 156.18 145.44 157.1 145.19 158.03C144.8 159.44 144.4 160.91 144.09 162.43C143.4 165.77 142.96 169.21 142.6 171.97C142.46 173.01 142.31 174.06 142.16 175.12C141.46 179.97 140.73 184.98 141.45 190.18C141.61 191.31 142.23 192.31 143.17 192.95C144.05 193.54 145.12 193.76 146.16 193.56C146.87 193.7 147.69 194.11 148.62 194.58L148.76 194.65C153.19 196.86 157.52 199.01 161.91 201.02L162.12 201.11C164.09 202.01 168.71 204.14 172.1 200.62C175.22 197.39 179.44 197.33 184.32 197.27C184.88 197.27 185.44 197.26 185.99 197.24C187.52 197.21 189.06 197.17 190.59 197.13C199.64 196.9 208.99 196.66 218.14 197.55C221.9 197.92 225.67 198.27 229.43 198.61C239.32 199.53 249.54 200.48 259.5 201.74C264.9 202.43 270.33 202.62 275.58 202.81C282.3 203.05 288.64 203.27 294.95 204.44C295.57 204.55 296.15 204.61 296.7 204.61C298.99 204.61 300.63 203.68 301.7 202.42C301.84 202.28 302 202.15 302.13 201.99C302.27 201.85 302.43 201.72 302.55 201.57C302.69 201.43 302.85 201.3 302.98 201.14C303.12 201 303.28 200.87 303.4 200.72C303.54 200.58 303.7 200.45 303.83 200.29C303.97 200.15 304.13 200.02 304.26 199.86C304.4 199.72 304.56 199.59 304.69 199.43C304.83 199.29 304.99 199.16 305.12 199C305.26 198.86 305.42 198.73 305.54 198.58C305.68 198.44 305.84 198.31 305.97 198.15C306.11 198.01 306.27 197.88 306.39 197.73C306.53 197.59 306.69 197.46 306.82 197.3C306.96 197.16 307.12 197.03 307.25 196.87C307.39 196.73 307.55 196.6 307.68 196.44C308.55 195.6 309.13 194.56 309.42 193.53C310.26 190.52 309.38 186.77 304.36 185.25C304.05 185.16 303.1 184.87 302.77 183.35C301.95 179.55 300.55 176.07 299.19 172.71C298 169.77 296.88 167 296.19 164.14C295.04 159.38 293.88 153.98 293.84 148.54C293.89 148.49 293.95 148.46 293.99 148.41C294.04 148.35 294.08 148.29 294.13 148.23C294.22 148.14 294.33 148.08 294.42 147.98C294.47 147.92 294.51 147.86 294.56 147.8C294.65 147.71 294.76 147.65 294.84 147.55C294.89 147.49 294.93 147.43 294.98 147.37C295.07 147.28 295.18 147.22 295.27 147.12C295.32 147.06 295.36 147 295.41 146.94C295.5 146.85 295.61 146.79 295.69 146.69C295.74 146.63 295.78 146.57 295.83 146.51C295.92 146.42 296.03 146.36 296.12 146.26C296.17 146.2 296.21 146.14 296.26 146.08C296.35 145.99 296.46 145.93 296.54 145.83C296.59 145.77 296.63 145.71 296.68 145.65C296.77 145.56 296.88 145.5 296.96 145.4C297.01 145.34 297.05 145.28 297.1 145.22C297.19 145.13 297.3 145.07 297.39 144.97C297.44 144.91 297.48 144.85 297.53 144.79C297.62 144.7 297.73 144.64 297.81 144.54C297.86 144.48 297.9 144.42 297.95 144.36C298.04 144.27 298.15 144.21 298.24 144.11C298.29 144.05 298.33 143.99 298.38 143.93C298.47 143.84 298.58 143.78 298.66 143.68C298.71 143.62 298.75 143.56 298.8 143.5C298.89 143.41 299 143.35 299.09 143.25C299.14 143.19 299.18 143.13 299.23 143.07C299.32 142.98 299.43 142.92 299.51 142.82C301.09 141.13 300.92 139.03 300.82 137.91C300.82 137.79 300.8 137.66 300.79 137.55C301.2 133.08 301.46 128.55 301.71 124.17C302.14 116.69 302.58 108.95 303.8 101.52C303.81 101.45 303.81 101.37 303.82 101.3C305 107.33 306.02 113.38 307.02 119.33L307.78 123.88C308.63 128.89 309.37 134.04 310.09 139.01C310.92 144.78 311.79 150.75 312.83 156.62C313.53 160.6 314.48 164.54 315.39 168.36C316.7 173.83 317.93 179 318.52 184.25C319.03 188.74 319.92 193.15 320.79 197.42C322.25 204.62 323.64 211.42 323.26 218.45C322.71 228.67 331.32 229.2 334.15 229.37C334.8 229.41 335.46 229.43 336.1 229.43C340.64 229.43 345 228.52 348.4 227.68C351.33 226.96 354.29 226.01 356.59 223.63C356.74 223.5 356.88 223.35 357.02 223.2C357.16 223.07 357.3 222.92 357.44 222.78C357.59 222.65 357.73 222.5 357.87 222.35C358.01 222.22 358.15 222.07 358.29 221.93C358.44 221.8 358.58 221.65 358.72 221.5C358.87 221.37 359.01 221.22 359.15 221.07C359.3 220.94 359.43 220.79 359.58 220.64C359.73 220.51 359.87 220.36 360.01 220.21C360.15 220.08 360.29 219.93 360.43 219.79C360.58 219.66 360.72 219.51 360.86 219.36C361 219.23 361.14 219.08 361.28 218.94C361.43 218.81 361.57 218.66 361.71 218.51C361.86 218.38 362 218.23 362.14 218.08C362.29 217.95 362.42 217.8 362.57 217.65C362.65 217.58 362.72 217.5 362.8 217.43C363.62 217.71 364.45 217.91 365.22 218.07C372.13 219.49 378.83 219.63 385.31 219.76L386.13 219.78C391 219.88 396.33 219.92 402.28 219.53C403.65 219.44 404.83 218.8 405.64 217.86C405.79 217.72 405.93 217.59 406.07 217.43C406.22 217.29 406.36 217.16 406.49 217.01C406.64 216.87 406.78 216.74 406.92 216.58C407.07 216.44 407.21 216.31 407.34 216.16C407.49 216.02 407.63 215.89 407.77 215.73C407.92 215.59 408.06 215.46 408.2 215.3C408.35 215.16 408.49 215.03 408.63 214.87C408.78 214.73 408.92 214.6 409.06 214.44C409.21 214.3 409.35 214.17 409.48 214.02C409.63 213.88 409.77 213.75 409.91 213.59C410.06 213.45 410.2 213.32 410.33 213.17C410.48 213.03 410.62 212.9 410.76 212.74C410.91 212.6 411.05 212.47 411.19 212.31C411.34 212.17 411.48 212.04 411.62 211.88C412.61 210.98 413.22 209.69 413.16 208.26L413.13 207.71C413.11 207.36 413.09 207.01 413.1 206.69C413.15 204.85 413.41 202.94 413.66 201.1L413.79 200.12C414.04 198.34 414.29 196.5 414.37 194.56V194.27C414.45 192.6 414.51 191.02 414.8 189.57C414.83 189.43 414.86 189.31 414.9 189.19C414.96 188.99 415.01 188.8 415.06 188.58C415.13 188.24 415.22 187.99 415.35 187.64C415.47 187.29 415.59 186.94 415.7 186.54C418.5 176.51 420.49 167.1 421.77 157.79C423.04 148.52 425.33 139.25 427.82 130.15C428.15 131.41 428.66 132.44 429.04 133.09C429.53 133.92 430.05 134.59 430.51 135.18C430.69 135.41 430.87 135.65 431.05 135.9C431.45 136.46 432.01 137.1 432.53 137.63C433.14 138.24 433.6 138.63 434 138.98C434.16 139.11 434.31 139.25 434.49 139.4C435.92 140.67 436.78 141.81 437.48 143.35C438.82 146.31 439.6 149.51 440.42 152.9C440.93 155 441.46 157.18 442.14 159.34C446.31 172.56 450.9 186.57 457.21 199.89C458.4 202.4 459.43 204.97 460.52 207.69C461.73 210.7 462.98 213.82 464.47 216.85C469.05 226.18 474.33 233.16 485.23 236.88C485.8 237.07 486.36 237.27 486.92 237.46C488.94 238.17 491.03 238.9 493.48 239.52C495.44 240.02 497.44 240.53 499.32 240.53C500.79 240.53 502.19 240.22 503.45 239.35C503.87 239.06 504.22 238.72 504.55 238.36C504.7 238.22 504.84 238.08 504.98 237.93C505.13 237.79 505.27 237.65 505.4 237.51C505.55 237.37 505.69 237.23 505.83 237.08C505.98 236.94 506.12 236.8 506.25 236.66C506.4 236.52 506.54 236.38 506.68 236.23C506.83 236.09 506.97 235.95 507.11 235.8C507.26 235.66 507.4 235.52 507.54 235.37C507.69 235.23 507.83 235.09 507.97 234.94C508.12 234.8 508.26 234.66 508.39 234.52C508.54 234.38 508.68 234.24 508.82 234.09C508.97 233.95 509.11 233.81 509.24 233.67C509.39 233.53 509.53 233.39 509.67 233.24C509.82 233.1 509.96 232.96 510.1 232.81C510.25 232.67 510.39 232.53 510.53 232.38C512.64 230.44 513.17 227.34 513.5 224.29C514.17 218.17 515.7 212.24 516.97 207.75C518.57 202.08 520.53 196.35 522.44 190.81C525.86 180.86 529.39 170.58 531.11 159.77C531.23 158.99 531.4 157.97 531.3 156.86C533.01 157.7 534.76 158.49 536.57 159.2C537.11 159.41 537.69 159.61 538.29 159.81C541.65 160.94 541.62 161.24 541.56 161.89C541.35 163.97 541.23 166.06 541.11 168.08C540.86 172.35 540.63 176.38 539.62 180.28C538.37 185.14 538.82 189.16 540.98 192.21C543.05 195.15 546.44 196.85 551.05 197.27C560.99 198.17 569.64 199.61 577.48 201.68C579.65 202.26 581.84 201.99 583.62 200.95C584.24 200.59 584.79 200.14 585.28 199.62C585.43 199.49 585.57 199.34 585.71 199.19C585.86 199.06 586 198.91 586.13 198.77C586.28 198.64 586.42 198.49 586.56 198.34C586.71 198.21 586.85 198.06 586.98 197.92C587.13 197.79 587.27 197.64 587.41 197.49C587.56 197.36 587.7 197.21 587.84 197.06C587.99 196.93 588.13 196.78 588.27 196.63C588.42 196.5 588.56 196.35 588.7 196.2C588.85 196.07 588.99 195.92 589.12 195.78C589.27 195.65 589.41 195.5 589.55 195.35C589.7 195.22 589.84 195.07 589.97 194.93C590.12 194.8 590.26 194.65 590.4 194.5C590.55 194.37 590.69 194.22 590.83 194.07C590.98 193.94 591.12 193.79 591.26 193.64C592.42 192.59 593.27 191.16 593.71 189.5C594.39 186.92 595.31 183.37 593.91 179.86C592.23 175.63 592.58 171.02 592.95 166.15L593.02 165.21C593.54 158.23 593.99 150.75 593.85 143.22C598.26 140.35 602.52 137.69 607.15 135.79C607.92 135.47 609.07 135.01 610.06 134.64C610.1 135.64 610.11 136.83 610.12 137.83C610.15 140.31 610.12 142.85 610.09 145.31C610.04 150.49 609.98 155.84 610.39 161.16C610.63 164.27 610.38 167.4 610.11 170.71C609.78 174.82 609.44 179.06 610.03 183.56C610.76 189.17 611.21 194.97 611.65 200.58C612.18 207.39 612.73 214.42 613.78 221.37L613.83 221.72C615.24 231.14 616.62 232.51 626.14 233.94C626.82 234.04 627.5 234.17 628.17 234.3L631.46 234.92C638.44 236.22 644.47 237.34 650.83 239.17C651.91 239.48 652.87 239.61 653.73 239.61C656.08 239.61 657.62 238.61 658.61 237.55C658.76 237.41 658.9 237.27 659.04 237.12C659.19 236.98 659.33 236.84 659.46 236.7C659.62 236.56 659.75 236.42 659.89 236.27C660.04 236.13 660.18 235.99 660.31 235.85C660.46 235.71 660.6 235.57 660.74 235.42C660.89 235.28 661.03 235.14 661.17 234.99C661.32 234.85 661.46 234.71 661.6 234.56C661.75 234.42 661.89 234.28 662.03 234.13C662.18 233.99 662.32 233.85 662.45 233.71C662.61 233.57 662.74 233.43 662.88 233.28C663.03 233.14 663.17 233 663.3 232.86C663.45 232.72 663.59 232.58 663.73 232.43C663.88 232.29 664.02 232.15 664.16 232C664.31 231.86 664.45 231.72 664.59 231.57C665.21 231.02 665.65 230.41 665.96 229.89C666.82 228.44 669.11 224.59 666.44 220.49C665.56 219.14 665.2 217.37 664.88 215.53C663.07 205.12 662.01 196.54 661.55 188.52C661.52 188.05 661.48 187.33 661.46 186.54C661.55 186.52 661.64 186.5 661.72 186.49C668.76 185.05 675.63 182.9 682.28 180.82C687.63 179.15 693.17 177.41 698.65 176.11C700.6 175.65 701.86 174.74 702.69 173.84C702.84 173.7 702.98 173.56 703.12 173.41C703.27 173.27 703.41 173.13 703.54 172.99C703.69 172.85 703.84 172.71 703.97 172.56C704.12 172.42 704.26 172.28 704.39 172.14C704.54 172 704.68 171.86 704.82 171.71C704.97 171.57 705.11 171.43 705.25 171.28C705.4 171.14 705.54 171 705.68 170.85C705.83 170.71 705.97 170.57 706.11 170.42C706.26 170.28 706.4 170.14 706.53 170C706.68 169.86 706.83 169.72 706.96 169.57C707.11 169.43 707.25 169.29 707.38 169.15C707.53 169.01 707.67 168.87 707.81 168.72C707.96 168.58 708.1 168.44 708.24 168.29C708.39 168.15 708.53 168.01 708.67 167.86C709.24 167.34 709.65 166.79 709.94 166.31C710.62 165.15 711.27 163.21 710.52 160.58L710.31 160.73ZM255.79 103.5C254.84 109.91 253.87 116.53 253.44 123.16C252.43 138.96 255.18 155.43 262.1 174.93C254.73 173.75 247.29 173.12 240.08 172.51C234.11 172.01 227.94 171.48 221.96 170.66C211.32 169.19 200.87 167.63 191.84 166.27C193.85 162.72 196.18 158.35 198.1 153.67L198.27 153.25C198.56 152.55 198.84 151.87 199.13 151.2C199.95 150.61 200.7 149.97 201.36 149.28C201.5 149.14 201.65 149 201.79 148.85C201.93 148.71 202.08 148.57 202.21 148.43C202.35 148.29 202.5 148.15 202.64 148C202.78 147.86 202.93 147.72 203.06 147.58C203.2 147.44 203.35 147.3 203.49 147.15C203.63 147.01 203.78 146.87 203.92 146.72C204.06 146.58 204.21 146.44 204.35 146.29C204.49 146.15 204.64 146.01 204.78 145.86C204.92 145.72 205.07 145.58 205.2 145.44C205.34 145.3 205.49 145.16 205.63 145.01C205.77 144.87 205.92 144.73 206.05 144.59C206.19 144.45 206.34 144.31 206.48 144.16C206.62 144.02 206.77 143.88 206.91 143.73C207.05 143.59 207.2 143.45 207.34 143.3C209.53 141.18 210.99 138.6 212.22 136.02C214.09 132.1 215.89 128.1 217.63 124.22L219.28 120.55C223.96 110.15 228.78 99.43 232.39 88.21C232.54 88.22 232.7 88.23 232.86 88.23C233.46 88.23 234.09 88.16 234.73 88C236.33 87.62 237.5 86.9 238.31 86C238.46 85.86 238.6 85.72 238.74 85.57C238.89 85.43 239.03 85.29 239.16 85.15C239.31 85.01 239.45 84.87 239.59 84.72C239.74 84.58 239.88 84.44 240.01 84.3C240.16 84.16 240.3 84.02 240.44 83.87C240.59 83.73 240.73 83.59 240.87 83.44C241.02 83.3 241.16 83.16 241.3 83.01C241.45 82.87 241.59 82.73 241.73 82.58C241.86 82.46 241.98 82.35 242.1 82.22C241.87 83.74 241.63 85.22 241.36 86.68C241.3 87 241.28 87.33 241.3 87.66C241.36 88.63 241.4 89.5 241.44 90.28C241.52 92.01 241.59 93.51 241.86 95.05C241.88 95.19 241.88 95.6 241.88 95.87C241.88 97.38 241.9 99.66 243.65 101.38C244.36 102.07 245.6 102.9 247.5 102.9C247.53 102.9 247.56 102.9 247.59 102.9C249.45 102.88 250.75 102.11 251.69 101.07C251.84 100.93 251.98 100.79 252.12 100.64C252.27 100.5 252.41 100.36 252.54 100.22C252.69 100.08 252.83 99.94 252.97 99.79C253.12 99.65 253.26 99.51 253.39 99.37C253.54 99.23 253.68 99.09 253.82 98.94C253.97 98.8 254.11 98.66 254.25 98.51C254.4 98.37 254.54 98.23 254.68 98.08C254.83 97.94 254.97 97.8 255.11 97.65C255.26 97.51 255.4 97.37 255.53 97.23C255.68 97.09 255.82 96.95 255.96 96.8C256.11 96.66 256.25 96.52 256.38 96.38C256.53 96.24 256.67 96.1 256.81 95.95C256.84 95.92 256.88 95.89 256.91 95.86C256.57 98.38 256.2 100.94 255.83 103.42L255.79 103.5ZM377.57 123.2C376.82 126.15 376.05 129.18 375.4 132.23C374.18 137.97 372.99 143.73 371.8 149.48C370.22 157.14 368.59 165 366.89 172.8C366.73 171.75 366.57 170.71 366.41 169.68C365.52 163.95 364.67 158.53 364.79 153.02C364.9 147.66 363.84 142.42 362.8 137.35C362.49 135.84 362.19 134.3 361.91 132.77C367.04 129.23 372.27 126.02 377.56 123.2H377.57ZM486.62 167.67C486.6 167.57 486.57 167.43 486.52 167.27C486.58 167.44 486.6 167.57 486.62 167.67Z" fill="#1D1D1B"/>
<path d="M409 206.65C409.06 204.64 409.32 202.62 409.59 200.63C409.87 198.57 410.19 196.54 410.28 194.47C410.36 192.59 410.42 190.73 410.78 188.88C410.86 188.47 410.98 188.12 411.05 187.81C411.26 186.85 411.53 186.31 411.75 185.54C414.34 176.26 416.39 166.91 417.71 157.32C419.48 144.42 423.07 131.85 426.63 119.33C429.17 110.37 432.37 101.6 437.01 93.48C438.83 90.28 440.55 87.16 441.93 83.7C443.44 79.89 442 78.53 438.91 77.38C431.65 74.66 424.24 72.06 417.37 68.69C410.63 65.39 405.26 66.29 399.4 69.5C398.54 69.97 397.56 70.22 396.64 70.59C382.93 76.01 369.16 81.28 356.45 88.89C354.91 89.81 353.21 91.71 351.55 90.92C349.37 89.87 350.84 87.36 350.65 85.48C349.9 78.3 350.03 76.19 339.62 75.86C332.15 75.62 324.72 74.75 317.38 73.31C311.69 72.19 309.41 74.36 310.75 79.43C314.01 91.75 315.95 104.34 318.07 116.89C319.91 127.77 321.19 138.73 323.11 149.6C324.77 158.97 327.78 168.13 328.83 177.47C330.14 189.13 334.23 200.37 333.59 212.33C333.32 217.36 335.66 218.73 340.73 219.04C345.22 219.31 349.81 218.43 353.78 217.46C358.08 216.4 360.67 215.2 362.08 210.97C364.29 204.32 363.39 197.53 363.97 190.82C365.08 177.9 360.52 165.71 360.79 152.95C360.94 146.09 358.92 139.18 357.76 132.31C357.47 130.61 357.56 129.32 359.05 128.18C367.52 121.7 376.48 116 386.04 111.27C386.84 110.88 387.88 110.03 388.74 111.03C389.45 111.84 389.08 112.9 388.83 113.88C387.76 118.15 386.6 122.4 385.69 126.71C382.45 141.94 379.45 157.23 376.05 172.43C373.98 181.67 371.98 190.95 368.46 199.82C366.45 204.89 367.18 206.79 372.33 207.85C379.16 209.25 385.77 209.33 392.51 209.47C397.94 209.58 402.9 209.58 408.31 209.22C408.72 209.19 409.07 208.91 409.05 208.5C409.02 207.86 408.98 207.23 408.99 206.66L409 206.65Z" fill="#AA1831"/>
<path d="M525.14 154.88C523.5 154.03 522.03 153.46 520.14 152.09C517.05 149.85 515.32 148.7 511.04 146.31C510.08 145.77 509.21 145.63 508.53 144.65C507.74 143.51 506.64 142.17 505.02 142.53C503.2 142.94 502.78 144.71 502.48 146.28C501.94 149.01 501.66 151.8 501.08 154.52C498.96 164.62 495.3 174.23 491.61 183.82C491.3 184.62 491.31 185.98 490.16 185.94C489.02 185.9 488.35 184.69 488.21 183.7C487.34 177.54 482.84 169.23 482.68 168.38C482.58 167.85 481.1 163.76 480.78 163.19C478.68 159.45 478.06 156.77 476.74 152.71C474.11 144.6 471.85 136.32 466.38 129.5C465.6 128.53 465.43 127.89 466.42 126.81C472.04 120.67 476.17 113.54 480.03 106.22C482.3 101.92 482.38 102.04 485.43 105.85C488.06 109.13 489.86 113.31 494.14 114.91C499.37 116.86 504.68 118.57 509.98 120.32C511.18 120.72 512.78 121.57 513.68 120.46C514.84 119.04 513.32 117.79 512.54 116.61C508.77 110.96 504.8 105.44 501.23 99.67C494.66 89.04 492.29 77.56 495.27 65.21C496.92 58.37 496.74 58.75 490.95 55.11C486.03 52.01 480.3 50.32 475.94 46.32C474.93 45.39 473.98 44.33 472.5 45.14C471.24 45.83 470.86 46.99 470.84 48.5C470.77 53.05 470.14 57.6 468.87 61.92C463.73 79.39 456.35 95.85 445.68 110.7C444.68 112.09 443.6 113.53 442.18 114.51C441.74 114.81 441.54 114.96 441.25 115.17C440.86 115.45 440.55 115.7 440.25 115.97C439.58 116.58 439 117.3 438.56 118.1C438.12 118.9 437.9 119.65 437.78 120.82C437.62 122.39 438.26 123.88 438.76 124.73C439.3 125.64 439.93 126.36 440.56 127.22C440.86 127.63 441.29 128.12 441.65 128.49C442.36 129.21 442.81 129.53 443.43 130.08C445.13 131.59 446.4 133.16 447.4 135.37C449.79 140.64 450.52 146.36 452.24 151.8C456.53 165.39 460.99 178.92 467.11 191.84C469.73 197.38 471.65 203.25 474.34 208.75C478.32 216.87 482.82 223.35 492.8 226.75C495.4 227.64 497.81 228.56 500.74 229.31C507.32 230.99 508.63 230.85 509.39 223.92C510.03 218.06 511.39 212.39 512.98 206.73C517.45 190.83 524.39 175.66 527.02 159.2C527.36 157.04 527.35 155.99 525.14 154.84V154.88Z" fill="#AA1831"/>
<path d="M130.55 199.71C130.24 199.51 130.15 199.25 130.17 198.99C130.17 198.96 130.14 198.96 130.13 198.93C129.12 192.86 130.41 186.79 131.18 180.77C131.58 177.65 131.97 174.57 132.6 171.48C133.18 168.65 134.09 165.91 134.69 163.1C134.55 163.07 134.45 163.1 134.3 163.05C137.22 155.81 137.02 147.98 139.26 140.52C140.17 137.49 143.21 137.46 143.69 135.2C144.88 129.58 146.09 123.91 146.55 118.2C148.34 96.18 145.73 74.11 146.92 52.08C146.97 51.14 146.76 50.36 145.82 50.1C140.23 48.54 135.6 47.07 130.92 44.86C125.71 42.4 120.55 40.28 116.08 36.94C113.39 34.93 112.2 35.65 110.61 37.82C107.52 42.02 104.67 46.34 101.99 50.81C97.4 58.46 93.84 65.7 90 73.61C85.05 83.8 81.85 90.51 78.01 101.24C77 104.06 75.28 104.51 73.53 102.11C67.17 93.36 56.84 85.03 51.27 76.12C50.48 74.85 51.55 72.72 49.43 72.16C44.1 70.73 38.81 69.12 33.41 68.01C27.89 66.87 22.94 65.16 17.11 63.73C16.02 63.46 14.84 62.06 13.93 63.98C13.01 65.91 11.83 67.93 12.57 70.07C14.05 74.35 15.06 78.79 16.51 83.03C21.64 98.08 29.05 112.19 35.99 126.44C45.12 145.16 54.22 163.79 57.63 184.6C57.92 186.38 59.02 187.36 60.49 188.04C67.5 191.27 78.65 183.98 78.35 176.24C78.17 171.7 77.73 167.16 77.1 162.66C76.72 159.96 55.56 114.64 57.86 116.72C61.81 120.29 67.69 127.77 72.76 134.45C77 140.04 78.46 142.22 80.18 144.86C81.79 147.32 82.5 148.94 83.17 149.49C84.62 150.69 86.98 150.8 89.14 150.55C90.39 150.41 92.77 149.46 96.08 148.82C97.62 140.66 99.34 137.1 101.5 130.53C102.96 126.09 108.9 107.6 114.53 100.43C113.87 116.58 107.77 147.22 104.3 162.25C104.46 167.56 101.94 172.67 101.19 177.85C99.05 192.48 98.66 207.25 97.36 221.95C97.11 224.8 98 227.4 101.7 228.8C106.06 230.45 109.09 228.23 112.54 226.88C119.33 224.22 127.39 223.03 128 212.86C129.27 215.3 128.75 217.71 131.15 219.55C132.25 215.26 131.21 211.28 131.72 207.41C132.03 205.03 134.07 201.99 130.56 199.74L130.55 199.71Z" fill="#AA1831"/>
<path d="M303.13 189.07C300.66 188.32 299.26 186.37 298.79 184.18C297.36 177.52 293.82 171.62 292.24 165.07C290.62 158.36 289.27 151.56 289.93 144.56C290.51 138.36 292.08 132.26 291.72 125.96C291.63 124.45 292.08 122.94 294.51 121.43C294.51 127.21 294.51 132.23 294.51 137.26C294.51 138.49 294.09 140.44 295.66 140.46C297.4 140.47 296.65 138.45 296.75 137.32C297.87 125.2 297.83 112.98 299.81 100.93C300.04 99.5 299.51 98.13 298.44 97.05C297.16 97.33 297.94 99.7 295.95 99.32C294.73 93.94 292.3 89.29 287.49 86.21C284.51 84.3 281.76 82.2 279.16 79.72C277.23 77.87 274.21 76.27 271.34 77.61C268.48 78.94 268.01 81.95 267.93 84.93C267.89 86.34 267.53 87.74 267.34 89.14C266.12 98.44 264.41 107.71 263.81 117.06C262.68 134.59 266.58 151.42 272.45 167.83C273.92 171.94 275.47 176.01 277.13 180.48C272.77 180.15 268.78 180.22 264.93 179.5C250.53 176.81 235.87 176.64 221.41 174.64C210.6 173.14 199.8 171.54 189.01 169.9C186.77 169.56 185.89 168.58 187.31 166.14C189.93 161.63 192.4 157.04 194.4 152.17C195.87 148.6 197.38 144.58 201.31 142.72C205.07 140.95 206.96 137.76 208.6 134.34C210.51 130.34 212.32 126.29 214.14 122.25C219.99 109.21 226.02 96.27 229.97 82.43C231.12 78.4 230.37 75.71 227.42 74.12C219.16 69.67 211.63 64.16 203.82 59.05C200.33 56.77 198.28 58.36 195.85 60.88C193.27 63.55 193.57 66.89 192.89 69.98C189.27 86.36 181.74 101.22 174.85 116.29C170 126.92 162.68 136.27 157.68 146.88C157.57 147.1 157.44 147.38 157.25 147.64C156.77 148.29 156.35 148.99 156.16 149.77C155.59 152.13 154.84 154.44 154.35 156.82C153.72 159.89 153.31 162.96 152.91 166.07C152.18 171.72 150.97 177.51 151.76 183.22C151.99 183.16 152.22 183.09 152.5 183.11C154.11 183.24 155.48 183.95 156.89 184.65C161.2 186.81 165.53 188.95 169.91 190.96C171.69 191.77 174.07 192.96 175.55 191.43C180.28 186.53 186.61 186.96 192.23 186.83C203.07 186.59 213.92 186.09 224.86 187.16C238.69 188.51 252.57 189.62 266.34 191.37C278.22 192.88 290.23 191.92 302.02 194.1C303.39 194.35 305 194.26 305.51 192.44C306.08 190.42 304.77 189.56 303.15 189.07H303.13Z" fill="#AA1831"/>
<path d="M682.97 153.02C674.98 154.32 668.19 158.62 660.29 159.45C656.7 159.83 654.39 168.42 656.89 171.07C658.02 172.27 659.34 171.62 660.49 171.28C671.92 167.91 683.31 164.44 694.74 161.06C697.18 160.34 699.69 159.83 702.18 159.31C704.32 158.86 705.87 159.76 706.46 161.83C707.08 164 706.07 165.46 703.92 165.97C691.51 168.92 679.63 173.77 667.12 176.32C657.9 178.2 656.83 179.37 657.39 188.88C657.92 198.11 659.19 207.25 660.78 216.34C661.17 218.56 661.64 220.81 662.92 222.78C664.12 224.63 663.33 226.32 662.35 227.97C661.32 229.71 659.62 229.46 658.16 229.04C650.85 226.93 643.94 225.74 635.9 224.23C634.94 224.05 633.95 223.85 632.97 223.7C625.06 222.51 625.17 222.5 623.97 214.5C622.09 201.97 621.85 189.28 620.23 176.77C619.25 169.19 621.18 162 620.61 154.58C620.03 146.93 620.43 139.21 620.35 131.52C620.26 122.72 620.12 122.44 611.86 125.82C604.5 128.83 598.06 133.62 591.34 137.83C589.7 138.85 589.63 140.66 589.68 142.43C589.88 149.98 589.44 157.5 588.88 165.02C588.47 170.53 587.89 176.06 590.04 181.46C590.95 183.75 590.29 186.29 589.68 188.61C589.05 191.02 587.1 192.15 584.74 191.52C575.84 189.17 566.81 187.82 557.64 186.99C550.55 186.35 547.9 182.08 549.72 174.98C551.33 168.73 551.13 162.32 551.76 156C552.25 151.14 547.41 150.42 544.25 149.18C539.45 147.31 535.05 144.79 530.62 142.28C528.33 140.98 528.42 139.51 530.66 138.19C535.32 135.47 539.76 132.18 544.71 130.2C551.48 127.49 552.05 122.33 551.61 116.45C550.67 103.98 549.51 91.54 550.9 79.01C551.3 75.4 550.97 71.7 550.95 68.05C550.93 64.03 552.61 62.48 556.43 63.79C563.76 66.28 571.36 67.9 578.53 70.93C580.45 71.74 581.09 72.74 581.25 74.65C582.08 84.23 585.06 93.5 585.46 103.16C585.58 106.06 587.01 106.84 589.72 105.55C600.99 100.21 612.31 94.95 623.58 89.62C624.98 88.96 626.36 88.16 626.37 86.22C626.42 78.5 628.85 71.17 630.23 63.67C631.35 57.56 637.06 55.27 642.86 56.72C650.89 58.72 650.34 65.32 651.79 70.84C653.56 77.58 654.17 84.55 654.51 91.5C654.6 93.36 655.15 94.36 656.87 94.98C659.14 95.8 661.34 96.79 663.56 97.74C665.08 98.39 666.3 99.2 665.89 101.24C665.51 103.14 665.17 104.74 662.71 105.07C660.1 105.42 656.81 105.5 655.2 107.1C653.58 108.71 655.37 111.95 655.39 114.5C655.44 122.9 655.12 131.32 656.19 139.69C656.57 142.71 655.14 145.5 655.58 148.57C656.04 151.83 657.27 153.17 660.58 152.08C664.49 150.8 668.5 149.81 672.32 148.33C678.81 145.83 679.51 146 682.95 153.01L682.97 153.02Z" fill="#AA1831"/>
<path d="M251.64 81.07C253.28 72.05 254.06 61.86 256.77 52.01C260.27 39.32 263.93 26.67 267.57 14.03C268.2 11.85 269.07 9.75001 269.89 7.63001C270.27 6.65001 271.02 5.82001 272.13 6.02001C273.22 6.21001 273.64 7.26001 273.81 8.28001C274.06 9.83001 273.93 11.34 273.68 12.92C270.85 30.45 265.38 47.31 260.94 64.44C259.03 71.81 256.64 79.15 256.74 86.92C256.74 87.2 256.81 87.51 256.74 87.77C256.19 89.67 255.83 92.56 253.91 92.58C251.69 92.61 252.46 89.71 252.17 88.06C251.83 86.12 251.86 84.12 251.66 81.07H251.64Z" fill="#AA1831"/>
<path d="M235.95 66.63C236.31 56.31 239.97 46.64 242.01 36.64C243.34 30.12 245.17 23.7 246.07 17.09C246.35 15.05 247.03 13.22 248.56 11.85C248.74 11.69 249.89 12.27 250.29 12.76C251.73 14.5 251.89 16.3 251.36 18.67C248.91 29.73 246.89 40.88 244.54 51.97C242.9 59.71 240.35 67.32 242.03 75.41C242.34 76.91 241.3 77.5 240.15 77.77C238.59 78.14 237.26 77.69 236.84 75.96C236.1 72.91 235.55 69.82 235.93 66.63H235.95Z" fill="#AA1831"/>
</svg>
